<svg width="176" height="96" viewBox="0 0 176 96" fill="none" xmlns="http://www.w3.org/2000/svg">
<rect width="176" height="96" rx="16" fill="white"/>
<g clip-path="url(#clip0_165_877)">
<path d="M65.5261 54.6792C65.3645 54.2892 65.2131 53.8792 65.0515 53.5292L64.3042 51.8592L64.2739 51.8292C62.0524 47.0292 59.6793 42.1492 57.1649 37.3492L57.0639 37.1492C56.8115 36.6792 56.559 36.1592 56.2965 35.6792C55.9734 35.1092 55.6603 34.4992 55.1453 33.9192C54.6433 33.3124 54.0115 32.8234 53.2956 32.4877C52.5796 32.152 51.7973 31.9778 51.0051 31.9778C50.2129 31.9778 49.4306 32.152 48.7147 32.4877C47.9987 32.8234 47.3669 33.3124 46.8649 33.9192C46.3903 34.4992 46.0369 35.1092 45.7137 35.6792C45.4613 36.1992 45.2088 36.7092 44.9463 37.1792L44.8453 37.3792C42.3713 42.1792 39.9579 47.0592 37.7363 51.8592L37.6757 51.9192C37.4535 52.4392 37.191 52.9792 36.9385 53.5592C36.777 53.9092 36.6154 54.2892 36.4538 54.7092C36.0176 55.809 35.8783 57.0024 36.0497 58.1717C36.221 59.3411 36.6971 60.446 37.431 61.3777C38.1648 62.3093 39.1312 63.0355 40.2348 63.4847C41.3384 63.9339 42.5411 64.0905 43.7244 63.9392C44.8589 63.7914 45.9513 63.4171 46.9356 62.8392C48.2484 62.1092 49.5106 61.0492 50.9243 59.5192C52.3381 61.0492 53.6306 62.1092 54.9131 62.8492C56.1463 63.5661 57.5429 63.9617 58.9725 63.9992C60.6279 64.0061 62.2299 63.4195 63.4827 62.348C64.7356 61.2764 65.5546 59.7921 65.7886 58.1692C66.0591 57.003 65.9676 55.7831 65.5261 54.6692V54.6792ZM51.0253 56.3392C49.2884 54.1392 48.1575 52.1192 47.7737 50.3892C47.6148 49.7482 47.5805 49.083 47.6728 48.4292C47.7434 47.9192 47.9353 47.4692 48.1979 47.0892C48.8037 46.2192 49.864 45.6792 51.0253 45.6792C51.5768 45.6626 52.1238 45.7817 52.6173 46.0261C53.1108 46.2704 53.5353 46.6323 53.8528 47.0792C54.1153 47.4792 54.3072 47.9192 54.3678 48.4292C54.4687 49.0092 54.4284 49.6792 54.2668 50.3892C53.8831 52.0892 52.7521 54.1292 51.0253 56.3392ZM63.8902 57.8192C63.7755 58.6432 63.4447 59.423 62.9309 60.0809C62.4171 60.7389 61.7382 61.252 60.9618 61.5692C60.1943 61.8892 59.3461 61.9792 58.5181 61.8892C57.7102 61.7892 56.9024 61.5292 56.0743 61.0492C54.6995 60.2077 53.4632 59.1622 52.4087 57.9492C54.5293 55.3492 55.8118 52.9792 56.2965 50.8692C56.5287 49.8692 56.559 48.9692 56.4581 48.1392C56.332 47.3525 56.0357 46.6021 55.5896 45.9392C55.0803 45.2205 54.4004 44.6367 53.6098 44.2391C52.8192 43.8416 51.9421 43.6424 51.0556 43.6592C49.1875 43.6592 47.5213 44.5192 46.5115 45.9292C46.0569 46.5904 45.7631 47.3468 45.6532 48.1392C45.5219 48.9792 45.5522 49.9092 45.8147 50.8692C46.2994 52.9792 47.6122 55.3792 49.7025 57.9692C48.6659 59.2054 47.4267 60.2601 46.0369 61.0892C45.1987 61.5692 44.401 61.8192 43.5932 61.9192C42.3368 62.0786 41.0678 61.7405 40.0618 60.9784C39.0559 60.2162 38.3943 59.0917 38.221 57.8492C38.12 57.0492 38.1907 56.2492 38.5138 55.3492C38.6148 55.0292 38.7663 54.7092 38.9279 54.3292C39.15 53.8092 39.4126 53.2692 39.665 52.7292L39.7054 52.6592C41.8866 47.8892 44.2697 43.0192 46.7437 38.2492L46.8447 38.0492C47.0972 37.5692 47.3496 37.0592 47.6122 36.5792C47.8747 36.0692 48.1575 35.5792 48.521 35.1792C48.8357 34.8073 49.2289 34.5081 49.6729 34.3029C50.1169 34.0976 50.6009 33.9912 51.0909 33.9912C51.581 33.9912 52.065 34.0976 52.509 34.3029C52.953 34.5081 53.3462 34.8073 53.6609 35.1792C54.0143 35.5792 54.3072 36.0692 54.5697 36.5792C54.8222 37.0592 55.0746 37.5792 55.3372 38.0492L55.4382 38.2492C57.9021 43.0192 60.2852 47.8892 62.5068 52.6592L62.5371 52.6892C62.7996 53.2092 63.0218 53.7892 63.2742 54.2892C63.4358 54.6792 63.5974 54.9892 63.6984 55.3192C63.8902 56.2192 63.9912 57.0192 63.8902 57.8192ZM77.9467 56.1192C77.1858 56.1303 76.4321 55.9715 75.7416 55.6547C75.0511 55.3379 74.4415 54.8712 73.958 54.2892C72.8715 53.0492 72.2948 51.4503 72.3423 49.8092C72.3256 48.1325 72.9209 46.5061 74.0185 45.2292C74.5263 44.6399 75.1583 44.1679 75.8701 43.8465C76.582 43.5252 77.3563 43.3622 78.1385 43.3692C78.8746 43.3493 79.6037 43.515 80.2573 43.8509C80.9109 44.1868 81.4675 44.6817 81.8748 45.2892L81.9758 43.7192H84.9244V55.7992H81.9657L81.8647 54.0392C81.4448 54.6879 80.8644 55.2195 80.1787 55.5835C79.493 55.9476 78.7246 56.132 77.9467 56.1192ZM78.7141 53.2392C79.2998 53.2392 79.8148 53.0792 80.2995 52.7892C80.7438 52.4692 81.1074 52.0492 81.3901 51.5392C81.6426 51.0292 81.7738 50.4192 81.7738 49.7392C81.8132 49.1486 81.6971 48.558 81.4369 48.0252C81.1767 47.4923 80.7813 47.0354 80.2894 46.6992C79.8168 46.4076 79.271 46.253 78.7141 46.253C78.1572 46.253 77.6115 46.4076 77.1388 46.6992C76.6945 47.0192 76.331 47.4392 76.0483 47.9492C75.7812 48.5117 75.6498 49.1279 75.6645 49.7492C75.6252 50.3398 75.7412 50.9305 76.0014 51.4633C76.2616 51.9962 76.657 52.453 77.1489 52.7892C77.6235 53.0792 78.1385 53.2392 78.7141 53.2392ZM89.9734 40.4592C89.9734 40.8092 89.9129 41.1292 89.7513 41.3892C89.5897 41.6392 89.3676 41.8692 89.0747 42.0292C88.7819 42.1892 88.4688 42.2492 88.1457 42.2492C87.8226 42.2492 87.4994 42.1892 87.2066 42.0292C86.9296 41.8766 86.6967 41.6562 86.53 41.3892C86.3736 41.1044 86.2969 40.7833 86.3079 40.4592C86.3079 40.0992 86.3785 39.7792 86.53 39.5292C86.6916 39.2292 86.9238 39.0492 87.2066 38.8892C87.4994 38.7292 87.8125 38.6592 88.1457 38.6592C88.4671 38.6519 88.785 38.7273 89.0682 38.878C89.3514 39.0288 89.5902 39.2497 89.7614 39.5192C89.9083 39.8108 89.9811 40.1335 89.9734 40.4592ZM86.5401 55.7592V43.6992H89.7513V55.7792H86.53L86.5401 55.7592ZM98.3346 46.8592V46.8992C98.1832 46.8292 97.9812 46.7992 97.8297 46.7692C97.6278 46.7292 97.4662 46.7292 97.2743 46.7292C96.3756 46.7292 95.699 46.9892 95.2547 47.5292C94.77 48.0792 94.5479 48.8492 94.5479 49.8392V55.7692H91.3266V43.6892H94.2853L94.3863 45.5192C94.7094 44.8792 95.0932 44.3992 95.6384 44.0392C96.1808 43.6895 96.8194 43.5148 97.4662 43.5392C97.6984 43.5392 97.9206 43.5592 98.1125 43.5992C98.2134 43.6292 98.274 43.6292 98.3346 43.6592V46.8592ZM99.6272 55.7592V38.7392H102.838V45.2392C103.293 44.6592 103.808 44.2092 104.454 43.8592C105.477 43.3625 106.639 43.2216 107.753 43.4592C108.867 43.6969 109.868 44.2993 110.594 45.1692C111.683 46.4118 112.259 48.0147 112.209 49.6592C112.226 51.336 111.631 52.9624 110.533 54.2392C110.025 54.8286 109.393 55.3006 108.681 55.622C107.97 55.9433 107.195 56.1062 106.413 56.0992C105.677 56.1192 104.948 55.9534 104.294 55.6176C103.641 55.2817 103.084 54.7867 102.677 54.1792L102.576 55.7492L99.6272 55.7792V55.7592ZM105.837 53.2392C106.413 53.2392 106.928 53.0792 107.413 52.7892C107.857 52.4692 108.221 52.0492 108.503 51.5392C108.766 51.0292 108.887 50.4192 108.887 49.7392C108.887 49.0692 108.766 48.4592 108.503 47.9492C108.238 47.4575 107.866 47.0305 107.413 46.6992C106.94 46.4076 106.394 46.253 105.837 46.253C105.281 46.253 104.735 46.4076 104.262 46.6992C103.808 47.0192 103.454 47.4392 103.161 47.9492C102.894 48.5117 102.763 49.1279 102.778 49.7492C102.738 50.3398 102.854 50.9305 103.115 51.4633C103.375 51.9962 103.77 52.453 104.262 52.7892C104.737 53.0792 105.252 53.2392 105.837 53.2392ZM113.421 55.7692V43.6892H116.38L116.481 45.2592C116.853 44.6574 117.38 44.1649 118.008 43.8326C118.637 43.5003 119.344 43.3404 120.056 43.3692C120.87 43.3553 121.67 43.5794 122.356 44.0133C123.042 44.4473 123.583 45.072 123.913 45.8092C124.266 46.5692 124.458 47.5092 124.458 48.5592V55.7992H121.237V48.9792C121.237 48.1392 121.045 47.4792 120.661 46.9892C120.278 46.5092 119.753 46.2492 119.086 46.2492C118.601 46.2492 118.177 46.3492 117.804 46.5692C117.45 46.7992 117.157 47.0892 116.935 47.4992C116.711 47.9137 116.599 48.3791 116.612 48.8492V55.7692H113.421ZM126.064 55.7692V38.7292H129.285V45.2292C129.721 44.646 130.289 44.1715 130.943 43.8434C131.597 43.5154 132.319 43.3427 133.052 43.3392C133.813 43.3282 134.566 43.487 135.257 43.8038C135.947 44.1206 136.557 44.5873 137.04 45.1692C138.122 46.4118 138.694 48.0098 138.646 49.6492C138.664 51.3262 138.068 52.9529 136.97 54.2292C136.462 54.8186 135.83 55.2906 135.118 55.612C134.406 55.9333 133.632 56.0962 132.85 56.0892C132.114 56.1092 131.385 55.9434 130.731 55.6076C130.077 55.2717 129.521 54.7767 129.113 54.1692L129.023 55.7392L126.064 55.7692ZM132.304 53.2392C132.89 53.2392 133.405 53.0792 133.88 52.7892C134.334 52.4692 134.688 52.0492 134.98 51.5392C135.233 51.0292 135.364 50.4192 135.364 49.7392C135.404 49.1486 135.287 48.558 135.027 48.0252C134.767 47.4923 134.372 47.0354 133.88 46.6992C133.407 46.4076 132.861 46.253 132.304 46.253C131.748 46.253 131.202 46.4076 130.729 46.6992C130.285 47.0192 129.921 47.4392 129.639 47.9492C129.357 48.5067 129.225 49.1266 129.255 49.7492C129.215 50.3398 129.332 50.9305 129.592 51.4633C129.852 51.9962 130.247 52.453 130.739 52.7892C131.214 53.0792 131.699 53.2392 132.304 53.2392Z" fill="#FF385C"/>
</g>
<defs>
<clipPath id="clip0_165_877">
<rect width="103" height="32" fill="white" transform="translate(36 32)"/>
</clipPath>
</defs>
</svg>
