<svg width="32" height="32" viewBox="0 0 32 32" fill="none" xmlns="http://www.w3.org/2000/svg">
<path d="M29.9884 20.0119H25.9874C25.2692 20.0232 25.2926 19.1884 25.3206 18.6782C25.3206 17.2051 24.1264 16.0109 22.6533 16.0109H13.0658C12.174 16.0097 11.341 16.4554 10.8473 17.1979L9.01414 19.9465L3.04407 20.4713C1.31884 20.6127 -0.00718081 22.0577 2.92624e-05 23.7888V27.3396C2.92624e-05 28.4444 0.895659 29.3401 2.00051 29.3401H4.73445C5.10716 31.1434 6.87116 32.303 8.67444 31.9303C9.97731 31.661 10.9954 30.6429 11.2647 29.3401H20.7282C21.1018 31.1432 22.8663 32.302 24.6694 31.9284C25.971 31.6587 26.988 30.6416 27.2577 29.3401H29.9917C31.0965 29.3401 31.9921 28.4444 31.9921 27.3396V22.011C31.9914 20.9062 31.0952 20.0112 29.9903 20.0119C29.9897 20.0119 29.9891 20.0119 29.9884 20.0119ZM7.9972 30.6737C6.89235 30.6737 5.99672 29.7781 5.99672 28.6733C5.99672 27.5684 6.89235 26.6728 7.9972 26.6728C9.10205 26.6728 9.99768 27.5684 9.99768 28.6733C9.99768 29.7781 9.10205 30.6737 7.9972 30.6737ZM23.9903 30.6737C22.8854 30.6737 21.9898 29.7781 21.9898 28.6733C21.9898 27.5684 22.8854 26.6728 23.9903 26.6728C25.0951 26.6728 25.9908 27.5684 25.9908 28.6733C25.9908 29.7781 25.0951 30.6737 23.9903 30.6737ZM30.6538 27.3396C30.6538 27.7079 30.3553 28.0064 29.987 28.0064H27.2531C26.8733 26.2046 25.1048 25.0519 23.303 25.4316C22.0105 25.7041 21.0006 26.7139 20.7282 28.0064H11.2627C10.9261 26.4658 9.57203 25.3604 7.99524 25.3391C6.41826 25.36 5.06397 26.4655 4.72781 28.0064H1.9938C1.62552 28.0064 1.327 27.7079 1.327 27.3396V23.7888C1.32143 22.7497 2.11713 21.8816 3.15279 21.7969L9.44225 21.2502C10.6785 20.8915 11.5207 17.2492 13.0591 17.3473H22.6574C23.3939 17.3473 23.991 17.9444 23.991 18.6809V19.3477C23.991 20.4526 24.8867 21.3482 25.9915 21.3482H29.9925C30.3608 21.3482 30.6593 21.6467 30.6593 22.015L30.6538 27.3396Z" fill="white"/>
<path d="M10.8108 3.48071C13.6727 0.618248 18.3132 0.617868 21.1757 3.47976C21.176 3.48008 21.1763 3.48039 21.1766 3.48071C21.7768 4.10153 22.7403 3.13994 22.1195 2.53783C18.7372 -0.845333 13.2527 -0.846029 9.86954 2.53625C9.86903 2.53676 9.86846 2.53733 9.86795 2.53783C9.24713 3.14057 10.208 4.10147 10.8108 3.48071Z" fill="white"/>
<path d="M20.4968 7.0075C20.8676 7.00199 21.1638 6.69696 21.1583 6.32615C21.1558 6.15475 21.0878 5.99075 20.9683 5.86786C18.2191 3.12494 13.7684 3.12494 11.0192 5.86786C10.3984 6.46801 11.36 7.43156 11.9621 6.81074C14.1902 4.5877 17.7973 4.5877 20.0253 6.81074C20.1502 6.93635 20.3198 7.00712 20.4968 7.0075Z" fill="white"/>
<path d="M13.0183 9.202C12.3974 9.80214 13.359 10.7657 13.9611 10.1449C15.0821 9.02162 16.9014 9.01979 18.0246 10.1408L18.0288 10.1449C18.6289 10.7657 19.5925 9.8041 18.9716 9.202C17.3296 7.55873 14.6663 7.55779 13.023 9.19991C13.0223 9.20061 13.0216 9.2013 13.0209 9.202H13.0183Z" fill="white"/>
</svg>
