<svg width="62" height="62" viewBox="0 0 62 62" fill="none" xmlns="http://www.w3.org/2000/svg">
<rect width="62" height="62" rx="16" fill="#0064E0" fill-opacity="0.1"/>
<path fill-rule="evenodd" clip-rule="evenodd" d="M42.9602 19.2613L31.1077 15.0542C30.9042 14.9819 30.682 14.9819 30.4784 15.0542L18.626 19.2613C18.2507 19.3945 18 19.7496 18 20.1478V32.5645C18 39.852 23.4478 46.0545 30.672 46.9922C30.7122 46.9974 30.7527 47 30.7931 47C30.8336 47 30.874 46.9974 30.9142 46.9922C38.1384 46.0545 43.5862 39.852 43.5862 32.5645V20.1478C43.5862 19.7496 43.3355 19.3945 42.9602 19.2613ZM41.7049 32.5645C41.7049 38.869 37.0227 44.2408 30.7931 45.1103C24.5635 44.2409 19.8813 38.869 19.8813 32.5645V20.8121L30.7931 16.9388L41.7049 20.8121V32.5645Z" fill="#095DC5"/>
<path fill-rule="evenodd" clip-rule="evenodd" d="M27.0927 27.4785V28.1014H26.9045C26.385 28.1014 25.9639 28.5226 25.9639 29.0421V33.6201C25.9639 35.1762 27.2298 36.442 28.7859 36.442H32.7994C34.3555 36.442 35.6214 35.1761 35.6214 33.6201V29.0421C35.6214 28.5226 35.2002 28.1014 34.6807 28.1014H34.4926V27.4785C34.4926 25.4383 32.8328 23.7784 30.7926 23.7784C28.7525 23.7784 27.0927 25.4383 27.0927 27.4785ZM33.7401 33.6201C33.7401 34.1388 33.3181 34.5607 32.7994 34.5607H28.7859C28.2672 34.5607 27.8452 34.1387 27.8452 33.6201V29.9828H33.7401V33.6201ZM32.6113 27.4785V28.1014H28.974V27.4785C28.974 26.4757 29.7899 25.6598 30.7926 25.6598C31.7954 25.6598 32.6113 26.4757 32.6113 27.4785Z" fill="#095DC5"/>
<path fill-rule="evenodd" clip-rule="evenodd" d="M30.7932 33.2125C31.3113 33.2125 31.7339 32.7899 31.7339 32.2718C31.7339 31.7537 31.3113 31.3311 30.7932 31.3311C30.2751 31.3311 29.8525 31.7537 29.8525 32.2718C29.8525 32.7899 30.2751 33.2125 30.7932 33.2125Z" fill="#095DC5"/>
</svg>
