<svg width="32" height="32" viewBox="0 0 32 32" fill="none" xmlns="http://www.w3.org/2000/svg">
<path d="M7.00552 12.0315C7.00552 11.6353 6.68439 11.3141 6.28821 11.3141H3.55716C3.16098 11.3141 2.83984 11.6353 2.83984 12.0315V12.0486C2.83984 12.4447 3.16098 12.7658 3.55716 12.7658H6.28827C6.68439 12.7658 7.00559 12.4447 7.00559 12.0485L7.00552 12.0315Z" fill="#095DC5"/>
<path d="M3.48029 15.4799H6.18924C6.59205 15.4799 6.91855 15.1253 6.91855 14.7225C6.91855 14.3197 6.59205 13.9651 6.18924 13.9651H3.48029C3.07748 13.9651 2.75098 14.3197 2.75098 14.7225C2.75098 15.1253 3.07748 15.4799 3.48029 15.4799Z" fill="#095DC5"/>
<path d="M7.00552 25.9171C7.00552 25.521 6.68439 25.1998 6.28821 25.1998H3.55716C3.16098 25.1998 2.83984 25.5209 2.83984 25.9171V25.9342C2.83984 26.3303 3.16098 26.6514 3.55716 26.6514H6.28827C6.68439 26.6514 7.00559 26.3303 7.00559 25.9341L7.00552 25.9171Z" fill="#095DC5"/>
<path d="M6.29373 22.3596H3.58478C3.18197 22.3596 2.85547 22.6826 2.85547 23.0854C2.85547 23.4882 3.18197 23.8112 3.58478 23.8112H6.29373C6.69654 23.8112 7.02304 23.4882 7.02304 23.0854C7.02311 22.6826 6.69654 22.3596 6.29373 22.3596Z" fill="#095DC5"/>
<path d="M4.89113 16.5145C3.56297 16.5145 2.48242 17.595 2.48242 18.9232C2.48242 20.2513 3.56297 21.3318 4.89113 21.3318C6.21929 21.3318 7.29978 20.2513 7.29978 18.9232C7.29984 17.595 6.21935 16.5145 4.89113 16.5145ZM4.89113 20.3339C4.11322 20.3339 3.48035 19.701 3.48035 18.9232C3.48035 18.1453 4.11322 17.5124 4.89113 17.5124C5.66898 17.5124 6.30185 18.1453 6.30185 18.9232C6.30185 19.701 5.66898 20.3339 4.89113 20.3339Z" fill="#095DC5"/>
<path d="M30.2495 6.95915H25.501L28.9462 3.50422C29.3985 3.05193 29.4365 2.33644 29.0628 1.83902L29.3488 1.55096C29.7031 1.19662 29.7279 0.620876 29.3492 0.266541V0.265909C28.9705 -0.0884259 28.4199 -0.0887416 28.0656 0.265594L27.7799 0.551006C27.5611 0.386083 27.2966 0.295511 27.0178 0.295511C26.6785 0.295511 26.3593 0.43746 26.1193 0.677428L19.8472 6.95915H1.76076C0.792047 6.95915 0 7.70373 0 8.67244V29.3909C0 30.3596 0.792047 31.1327 1.76076 31.1327H30.2495C31.2182 31.1327 32 30.3596 32 29.3909V8.67244C32 7.70373 31.2182 6.95915 30.2495 6.95915ZM28.3006 2.49461C28.3398 2.59282 28.3198 2.7094 28.2404 2.7888L16.333 14.6961L14.9175 13.2806L26.8249 1.37322C26.8763 1.32178 26.9448 1.29338 27.0176 1.29338L27.119 1.31307L28.3006 2.49461ZM27.1085 2.03607L22.0803 7.05073L22.4862 7.45663L27.4658 2.41389L27.1085 2.03607ZM15.1475 15.2664L13.924 15.9848L13.6015 15.6622L14.2928 14.4117L15.1475 15.2664ZM14.0426 12.7481C13.92 12.8706 13.845 13.026 13.8258 13.1957L12.3647 15.8379L12.7713 16.244L12.5016 16.8433C12.3851 17.1022 12.5742 17.2912 12.8331 17.1747L13.4326 16.9049L13.764 17.2363L16.2335 15.7862C16.2335 15.7862 16.2994 15.7935 16.333 15.7935C16.5357 15.7935 16.7262 15.7184 16.8694 15.5752L22.3333 10.115H27.9744C28.4927 10.115 28.9704 10.5289 28.9704 11.0471V27.0162C28.9704 27.5345 28.4927 27.9769 27.9744 27.9769H9.96374C9.44543 27.9769 9.02564 27.5345 9.02564 27.0162V11.0471C9.02564 10.5289 9.44543 10.115 9.96374 10.115H16.6796L14.0426 12.7481ZM30.9901 29.3909C30.9901 29.8094 30.6679 30.1229 30.2495 30.1229H1.76076C1.3423 30.1229 1.00986 29.8094 1.00986 29.3909V8.67244C1.00986 8.25398 1.3423 7.96901 1.76076 7.96901H18.8492L17.6775 9.1051H9.96374C8.89518 9.1051 8.0789 9.97857 8.0789 11.0471V27.0162C8.0789 28.0848 8.89518 28.9868 9.96374 28.9868H27.9744C29.0429 28.9868 29.9172 28.0848 29.9172 27.0162V11.0471C29.9172 9.97857 29.0429 9.1051 27.9744 9.1051H23.3313L24.503 7.96901H30.2495C30.6679 7.96901 30.9901 8.25398 30.9901 8.67244V29.3909H30.9901Z" fill="#095DC5"/>
</svg>
