<svg width="26" height="32" viewBox="0 0 26 32" fill="none" xmlns="http://www.w3.org/2000/svg">
<path fill-rule="evenodd" clip-rule="evenodd" d="M24.9602 4.26129L13.1077 0.0541825C12.9042 -0.0180608 12.682 -0.0180608 12.4784 0.0541825L0.625984 4.26129C0.25072 4.39449 0 4.74956 0 5.14778V17.5645C0 24.852 5.44779 31.0545 12.672 31.9922C12.7122 31.9974 12.7527 32 12.7931 32C12.8336 32 12.874 31.9974 12.9142 31.9922C20.1384 31.0545 25.5862 24.852 25.5862 17.5645V5.14778C25.5862 4.74956 25.3355 4.39449 24.9602 4.26129ZM23.7049 17.5645C23.7049 23.869 19.0227 29.2408 12.7931 30.1103C6.56349 29.2409 1.88134 23.869 1.88134 17.5645V5.81208L12.7931 1.93884L23.7049 5.81208V17.5645Z" fill="#095DC5"/>
<path fill-rule="evenodd" clip-rule="evenodd" d="M9.09267 12.4785V13.1014H8.90454C8.38504 13.1014 7.96387 13.5226 7.96387 14.0421V18.6201C7.96387 20.1762 9.22982 21.442 10.7859 21.442H14.7994C16.3555 21.442 17.6214 20.1761 17.6214 18.6201V14.0421C17.6214 13.5226 17.2002 13.1014 16.6807 13.1014H16.4926V12.4785C16.4926 10.4383 14.8328 8.77844 12.7926 8.77844C10.7525 8.77844 9.09267 10.4383 9.09267 12.4785ZM15.7401 18.6201C15.7401 19.1388 15.3181 19.5607 14.7994 19.5607H10.7859C10.2672 19.5607 9.84521 19.1387 9.84521 18.6201V14.9828H15.7401V18.6201ZM14.6113 12.4785V13.1014H10.974V12.4785C10.974 11.4757 11.7899 10.6598 12.7926 10.6598C13.7954 10.6598 14.6113 11.4757 14.6113 12.4785Z" fill="#095DC5"/>
<path fill-rule="evenodd" clip-rule="evenodd" d="M12.7932 18.2125C13.3113 18.2125 13.7339 17.7899 13.7339 17.2718C13.7339 16.7537 13.3113 16.3311 12.7932 16.3311C12.2751 16.3311 11.8525 16.7537 11.8525 17.2718C11.8525 17.7899 12.2751 18.2125 12.7932 18.2125Z" fill="#095DC5"/>
</svg>
