<svg width="62" height="62" viewBox="0 0 62 62" fill="none" xmlns="http://www.w3.org/2000/svg">
<rect width="62" height="62" rx="16" fill="#0064E0" fill-opacity="0.1"/>
<path d="M22.0055 27.0315C22.0055 26.6353 21.6844 26.3141 21.2882 26.3141H18.5572C18.161 26.3141 17.8398 26.6353 17.8398 27.0315V27.0486C17.8398 27.4447 18.161 27.7658 18.5572 27.7658H21.2883C21.6844 27.7658 22.0056 27.4447 22.0056 27.0485L22.0055 27.0315Z" fill="#095DC5"/>
<path d="M18.4803 30.4799H21.1892C21.592 30.4799 21.9186 30.1253 21.9186 29.7225C21.9186 29.3197 21.592 28.9651 21.1892 28.9651H18.4803C18.0775 28.9651 17.751 29.3197 17.751 29.7225C17.751 30.1253 18.0775 30.4799 18.4803 30.4799Z" fill="#095DC5"/>
<path d="M22.0055 40.9171C22.0055 40.521 21.6844 40.1998 21.2882 40.1998H18.5572C18.161 40.1998 17.8398 40.5209 17.8398 40.9171V40.9342C17.8398 41.3303 18.161 41.6514 18.5572 41.6514H21.2883C21.6844 41.6514 22.0056 41.3303 22.0056 40.9341L22.0055 40.9171Z" fill="#095DC5"/>
<path d="M21.2937 37.3596H18.5848C18.182 37.3596 17.8555 37.6826 17.8555 38.0854C17.8555 38.4882 18.182 38.8112 18.5848 38.8112H21.2937C21.6965 38.8112 22.023 38.4882 22.023 38.0854C22.0231 37.6826 21.6965 37.3596 21.2937 37.3596Z" fill="#095DC5"/>
<path d="M19.8911 31.5145C18.563 31.5145 17.4824 32.595 17.4824 33.9232C17.4824 35.2513 18.563 36.3318 19.8911 36.3318C21.2193 36.3318 22.2998 35.2513 22.2998 33.9232C22.2998 32.595 21.2194 31.5145 19.8911 31.5145ZM19.8911 35.3339C19.1132 35.3339 18.4804 34.701 18.4804 33.9232C18.4804 33.1453 19.1132 32.5124 19.8911 32.5124C20.669 32.5124 21.3018 33.1453 21.3018 33.9232C21.3018 34.701 20.669 35.3339 19.8911 35.3339Z" fill="#095DC5"/>
<path d="M45.2495 21.9591H40.501L43.9462 18.5042C44.3985 18.0519 44.4365 17.3364 44.0628 16.839L44.3488 16.551C44.7031 16.1966 44.7279 15.6209 44.3492 15.2665V15.2659C43.9705 14.9116 43.4199 14.9113 43.0656 15.2656L42.7799 15.551C42.5611 15.3861 42.2966 15.2955 42.0178 15.2955C41.6785 15.2955 41.3593 15.4375 41.1193 15.6774L34.8472 21.9591H16.7608C15.792 21.9591 15 22.7037 15 23.6724V44.3909C15 45.3596 15.792 46.1327 16.7608 46.1327H45.2495C46.2182 46.1327 47 45.3596 47 44.3909V23.6724C47 22.7037 46.2182 21.9591 45.2495 21.9591ZM43.3006 17.4946C43.3398 17.5928 43.3198 17.7094 43.2404 17.7888L31.333 29.6961L29.9175 28.2806L41.8249 16.3732C41.8763 16.3218 41.9448 16.2934 42.0176 16.2934L42.119 16.3131L43.3006 17.4946ZM42.1085 17.0361L37.0803 22.0507L37.4862 22.4566L42.4658 17.4139L42.1085 17.0361ZM30.1475 30.2664L28.924 30.9848L28.6015 30.6622L29.2928 29.4117L30.1475 30.2664ZM29.0426 27.7481C28.92 27.8706 28.845 28.026 28.8258 28.1957L27.3647 30.8379L27.7713 31.244L27.5016 31.8433C27.3851 32.1022 27.5742 32.2912 27.8331 32.1747L28.4326 31.9049L28.764 32.2363L31.2335 30.7862C31.2335 30.7862 31.2994 30.7935 31.333 30.7935C31.5357 30.7935 31.7262 30.7184 31.8694 30.5752L37.3333 25.115H42.9744C43.4927 25.115 43.9704 25.5289 43.9704 26.0471V42.0162C43.9704 42.5345 43.4927 42.9769 42.9744 42.9769H24.9637C24.4454 42.9769 24.0256 42.5345 24.0256 42.0162V26.0471C24.0256 25.5289 24.4454 25.115 24.9637 25.115H31.6796L29.0426 27.7481ZM45.9901 44.3909C45.9901 44.8094 45.6679 45.1229 45.2495 45.1229H16.7608C16.3423 45.1229 16.0099 44.8094 16.0099 44.3909V23.6724C16.0099 23.254 16.3423 22.969 16.7608 22.969H33.8492L32.6775 24.1051H24.9637C23.8952 24.1051 23.0789 24.9786 23.0789 26.0471V42.0162C23.0789 43.0848 23.8952 43.9868 24.9637 43.9868H42.9744C44.0429 43.9868 44.9172 43.0848 44.9172 42.0162V26.0471C44.9172 24.9786 44.0429 24.1051 42.9744 24.1051H38.3313L39.503 22.969H45.2495C45.6679 22.969 45.9901 23.254 45.9901 23.6724V44.3909H45.9901Z" fill="#095DC5"/>
</svg>
