<svg width="106" height="105" viewBox="0 0 106 105" fill="none" xmlns="http://www.w3.org/2000/svg">
<rect x="0.984375" width="105" height="105" rx="20" fill="#095DC5"/>
<path d="M36.8814 48.2144C36.5217 49.6145 36.3403 51.0545 36.3414 52.5001C36.3414 53.9787 36.5299 55.4144 36.8814 56.7858H42.9842C42.6953 53.936 42.6953 51.0642 42.9842 48.2144H36.8814ZM38.6342 43.9287H43.6614C44.2314 41.3208 45.0542 38.9851 46.0635 37.0415C42.9525 38.5403 40.364 40.9399 38.6342 43.9287ZM70.0871 48.2144H63.9842C64.2731 51.0642 64.2731 53.936 63.9842 56.7858H70.0871C70.8085 53.9742 70.8085 51.026 70.0871 48.2144ZM68.3342 43.9287C66.6045 40.9399 64.016 38.5403 60.9049 37.0415C61.9164 38.9851 62.7371 41.3208 63.3071 43.9287H68.3342ZM47.2957 48.2144C47.1351 49.6373 47.055 51.0682 47.0557 52.5001C47.0557 53.968 47.1371 55.4037 47.2957 56.7858H59.6728C59.9955 53.9378 59.9955 51.0624 59.6728 48.2144H47.2957ZM48.0628 43.9287H58.9057C58.5157 42.3179 57.9532 40.7538 57.2278 39.2637C55.8821 36.5744 54.4421 35.3572 53.4842 35.3572C52.5242 35.3572 51.0864 36.5744 49.7407 39.2637C49.0657 40.618 48.4978 42.193 48.0628 43.9287ZM38.6342 61.0715C40.364 64.0603 42.9525 66.4599 46.0635 67.9587C45.0521 66.0151 44.2314 63.6794 43.6614 61.0715H38.6342ZM68.3342 61.0715H63.3071C62.7371 63.6794 61.9142 66.0151 60.9049 67.9587C64.016 66.4599 66.6045 64.0603 68.3342 61.0715ZM48.0628 61.0715C48.4978 62.8072 49.0657 64.3822 49.7407 65.7365C51.0864 68.4258 52.5264 69.643 53.4842 69.643C54.4442 69.643 55.8821 68.4258 57.2278 65.7365C57.9028 64.3822 58.4707 62.8072 58.9057 61.0715H48.0628ZM53.4842 73.9287C41.6492 73.9287 32.0557 64.3351 32.0557 52.5001C32.0557 40.6651 41.6492 31.0715 53.4842 31.0715C65.3192 31.0715 74.9128 40.6651 74.9128 52.5001C74.9128 64.3351 65.3192 73.9287 53.4842 73.9287Z" fill="white"/>
</svg>
