<svg width="32" height="32" viewBox="0 0 32 32" fill="none" xmlns="http://www.w3.org/2000/svg">
<path d="M30.4516 22.7097H27.871V19.6129H24.7742V17.4034C28.8754 16.6689 32 13.0834 32 8.77419C32 3.936 28.064 0 23.2258 0C19.3414 0 15.9308 2.57858 14.8263 6.23535C13.8333 5.55923 12.6385 5.16129 11.3548 5.16129C8.27974 5.16129 5.728 7.36155 5.24542 10.3484C3.456 10.5626 2.06452 12.0898 2.06452 13.9355C2.06452 15.9272 3.68516 17.5484 5.67742 17.5484H7.22581V19.6129H4.12903V22.7097H1.54839C0.69471 22.7097 0 23.4044 0 24.2581V28.3871C0 29.2408 0.69471 29.9355 1.54839 29.9355H2.58065V30.9677H1.54839V32H7.74142V30.9677H6.70968V29.9355H7.74194C8.59561 29.9355 9.29032 29.2408 9.29032 28.3871V25.8064H11.3548V28.3871C11.3548 29.2408 12.0495 29.9355 12.9032 29.9355H13.9355V30.9677H12.9032V32H19.0963V30.9677H18.0645V29.9355H19.0968C19.9505 29.9355 20.6452 29.2408 20.6452 28.3871V25.8064H22.7097V28.3871C22.7097 29.2408 23.4044 29.9355 24.2581 29.9355H25.2903V30.9677H24.2581V32H30.4511V30.9677H29.4194V29.9355H30.4516C31.3053 29.9355 32 29.2408 32 28.3871V24.2581C32 23.4044 31.3053 22.7097 30.4516 22.7097ZM30.9677 24.2581V26.8387H23.7419V24.2581C23.7419 23.9732 23.9737 23.7419 24.2581 23.7419H30.4516C30.736 23.7419 30.9677 23.9732 30.9677 24.2581ZM18.5987 9.29032C18.6095 9.65677 18.6312 10.0186 18.6658 10.3768C18.4697 10.3437 18.2699 10.3226 18.0645 10.3226C17.8637 10.3226 17.663 10.3396 17.4637 10.3742C17.4044 10.0005 17.311 9.63819 17.1881 9.29032H18.5987ZM23.2258 1.03226C24.3778 1.03226 25.4214 2.26426 26.0883 4.12903H20.3634C21.0302 2.26426 22.0738 1.03226 23.2258 1.03226ZM26.4046 5.16129C26.6431 6.10116 26.7897 7.15252 26.8258 8.25806H19.6253C19.6614 7.15252 19.808 6.10116 20.0465 5.16129H26.4046ZM30.9414 8.25806H27.8575C27.825 7.15406 27.6914 6.11097 27.4694 5.16129H30.0676C30.5636 6.09652 30.8676 7.14581 30.9414 8.25806ZM30.9414 9.29032C30.8676 10.4026 30.5636 11.4519 30.0676 12.3871H27.4694C27.6914 11.4374 27.825 10.3943 27.8575 9.29032H30.9414ZM19.7419 10.7386C19.6821 10.2653 19.6465 9.78116 19.631 9.29032H26.8263C26.7902 10.3959 26.6436 11.4472 26.4052 12.3871H21.3239C20.9874 11.6821 20.4315 11.1019 19.7419 10.7386ZM21.6361 13.4194H26.0883C25.4214 15.2841 24.3778 16.5161 23.2258 16.5161C22.4294 16.5161 21.6511 16.3969 20.9043 16.1615C21.3868 15.5474 21.6774 14.7752 21.6774 13.9355C21.6774 13.76 21.6604 13.5886 21.6361 13.4194ZM25.857 16.0459C26.3928 15.361 26.8418 14.4635 27.1814 13.4194H29.4049C28.5084 14.6085 27.281 15.5288 25.857 16.0459ZM29.4049 4.12903H27.1814C26.8418 3.0849 26.3928 2.18735 25.857 1.50245C27.281 2.01961 28.5084 2.93987 29.4049 4.12903ZM20.6008 1.49368C20.0625 2.17961 19.6114 3.08026 19.2702 4.12903H17.0385C17.9427 2.9311 19.1809 2.00826 20.6008 1.49368ZM16.384 5.16129H18.9822C18.7603 6.11097 18.6266 7.15406 18.5941 8.25806H16.7107C16.4341 7.77961 16.095 7.34348 15.7058 6.95794C15.8586 6.32258 16.0867 5.72077 16.384 5.16129ZM3.09677 13.9355C3.09677 12.513 4.25394 11.3554 5.67277 11.3554H5.67381L6.17239 11.3843L6.21729 10.8867C6.45832 8.2111 8.66684 6.19355 11.3548 6.19355C14.0831 6.19355 16.3432 8.32877 16.5001 11.0545L16.5399 11.7445L17.1902 11.5107C17.4772 11.4075 17.7714 11.3548 18.0645 11.3548C19.4875 11.3548 20.6452 12.5125 20.6452 13.9355C20.6452 15.3585 19.4875 16.5161 18.0645 16.5161H5.67742C4.25445 16.5161 3.09677 15.3585 3.09677 13.9355ZM1.54839 23.7419H7.74194C8.02632 23.7419 8.25806 23.9732 8.25806 24.2581V26.8387H1.03226V24.2581C1.03226 23.9732 1.264 23.7419 1.54839 23.7419ZM5.67742 30.9677H3.6129V29.9355H5.67742V30.9677ZM7.74194 28.9032H1.54839C1.264 28.9032 1.03226 28.672 1.03226 28.3871V27.871H8.25806V28.3871C8.25806 28.672 8.02632 28.9032 7.74194 28.9032ZM9.29032 24.7742V24.2581C9.29032 23.4044 8.59561 22.7097 7.74194 22.7097H5.16129V20.6452H8.25806V17.5484H15.4839V22.7097H12.9032C12.0495 22.7097 11.3548 23.4044 11.3548 24.2581V24.7742H9.29032ZM19.6129 26.8387H12.3871V24.2581C12.3871 23.9732 12.6188 23.7419 12.9032 23.7419H19.0968C19.3812 23.7419 19.6129 23.9732 19.6129 24.2581V26.8387ZM17.0323 30.9677H14.9677V29.9355H17.0323V30.9677ZM19.0968 28.9032H12.9032C12.6188 28.9032 12.3871 28.672 12.3871 28.3871V27.871H19.6129V28.3871C19.6129 28.672 19.3812 28.9032 19.0968 28.9032ZM20.6452 24.7742V24.2581C20.6452 23.4044 19.9505 22.7097 19.0968 22.7097H16.5161V17.5484H18.0645C18.8 17.5484 19.4844 17.3265 20.0557 16.9471C21.0663 17.3399 22.1295 17.5484 23.2258 17.5484C23.4003 17.5484 23.5701 17.5324 23.7419 17.5221V20.6452H26.8387V22.7097H24.2581C23.4044 22.7097 22.7097 23.4044 22.7097 24.2581V24.7742H20.6452ZM28.3871 30.9677H26.3226V29.9355H28.3871V30.9677ZM30.4516 28.9032H24.2581C23.9737 28.9032 23.7419 28.672 23.7419 28.3871V27.871H30.9677V28.3871C30.9677 28.672 30.736 28.9032 30.4516 28.9032Z" fill="white"/>
<path d="M7.74175 12.387C6.88807 12.387 6.19336 13.0817 6.19336 13.9353C6.19336 14.789 6.88807 15.4837 7.74175 15.4837C8.59542 15.4837 9.29013 14.789 9.29013 13.9353C9.29013 13.0817 8.59542 12.387 7.74175 12.387ZM7.74175 14.4515C7.45736 14.4515 7.22562 14.2203 7.22562 13.9353C7.22562 13.6504 7.45736 13.4192 7.74175 13.4192C8.02613 13.4192 8.25788 13.6504 8.25788 13.9353C8.25788 14.2203 8.02613 14.4515 7.74175 14.4515Z" fill="white"/>
<path d="M11.8707 12.387C11.017 12.387 10.3223 13.0817 10.3223 13.9353C10.3223 14.789 11.017 15.4837 11.8707 15.4837C12.7243 15.4837 13.419 14.789 13.419 13.9353C13.419 13.0817 12.7243 12.387 11.8707 12.387ZM11.8707 14.4515C11.5863 14.4515 11.3545 14.2203 11.3545 13.9353C11.3545 13.6504 11.5863 13.4192 11.8707 13.4192C12.155 13.4192 12.3868 13.6504 12.3868 13.9353C12.3868 14.2203 12.155 14.4515 11.8707 14.4515Z" fill="white"/>
<path d="M15.9996 12.387C15.1459 12.387 14.4512 13.0817 14.4512 13.9353C14.4512 14.789 15.1459 15.4837 15.9996 15.4837C16.8532 15.4837 17.5479 14.789 17.5479 13.9353C17.5479 13.0817 16.8532 12.387 15.9996 12.387ZM15.9996 14.4515C15.7152 14.4515 15.4834 14.2203 15.4834 13.9353C15.4834 13.6504 15.7152 13.4192 15.9996 13.4192C16.2839 13.4192 16.5157 13.6504 16.5157 13.9353C16.5157 14.2203 16.2839 14.4515 15.9996 14.4515Z" fill="white"/>
<path d="M11.3545 7.22583V8.25809C12.715 8.25809 13.9357 9.16751 14.3227 10.4697L15.3122 10.1755C14.7955 8.43873 13.1682 7.22583 11.3545 7.22583Z" fill="white"/>
</svg>
