<svg width="32" height="32" viewBox="0 0 32 32" fill="none" xmlns="http://www.w3.org/2000/svg">
<path d="M6.40019 3.19998H3.2002V6.39998H6.40019V3.19998Z" fill="white"/>
<path d="M22.3998 0V1.6H20.7998V3.2H22.3998V9.6H23.9998V11.2H22.3998V12.8H23.9998H25.5998V9.6H30.3998V11.2H31.9998V9.6V0H22.3998ZM30.3998 8H23.9998V1.6H30.3998V8Z" fill="white"/>
<path d="M28.7996 3.19998H25.5996V6.39998H28.7996V3.19998Z" fill="white"/>
<path d="M6.40019 25.6H3.2002V28.8H6.40019V25.6Z" fill="white"/>
<path d="M24.0004 22.4H22.4004V24H24.0004V22.4Z" fill="white"/>
<path d="M16.0004 30.4H14.4004V32H16.0004V30.4Z" fill="white"/>
<path d="M17.6 24H16V25.6H17.6V24Z" fill="white"/>
<path d="M17.6 27.2H16V28.8H17.6V27.2Z" fill="white"/>
<path d="M32.0004 19.2H30.4004V20.8H32.0004V19.2Z" fill="white"/>
<path d="M1.6 19.2H0V20.8H1.6V19.2Z" fill="white"/>
<path d="M1.6 11.2H0V12.8H1.6V11.2Z" fill="white"/>
<path d="M17.6004 1.60001V3.20001H14.4004V4.80001H19.2004V3.20001V1.60001H17.6004Z" fill="white"/>
<path d="M30.4002 12.8V14.4H27.2002V16H22.4002V14.4H20.8002V16H17.6002V17.6H22.4002V19.2H19.2002H17.6002V17.6H16.0002V19.2H14.4002V17.6H12.8002V19.2H11.2002V20.8H14.4002V22.4H16.0002V20.8H19.2002V22.4H17.6002V24H19.2002V27.2H20.8002V28.8H22.4002V27.2H27.2002V24H28.8002V22.4H27.2002V19.2H24.0002V17.6H27.2002V19.2H28.8002V17.6H30.4002V16H32.0002V14.4V12.8H30.4002ZM25.6002 20.8V25.6H20.8002V20.8H25.6002Z" fill="white"/>
<path d="M20.7996 9.60001H19.1996V11.2H17.5996V12.8V14.4H19.1996V12.8H20.7996V11.2H22.3996V9.60001H20.7996Z" fill="white"/>
<path d="M20.7996 30.4H17.5996V32H20.7996V30.4Z" fill="white"/>
<path d="M14.3998 1.60001H12.7998V3.20001H14.3998V1.60001Z" fill="white"/>
<path d="M27.1996 12.8H25.5996V14.4H27.1996V12.8Z" fill="white"/>
<path d="M28.8002 11.2H27.2002V12.8H28.8002V11.2Z" fill="white"/>
<path d="M8.00039 19.2H6.40039V20.8H8.00039V19.2Z" fill="white"/>
<path d="M9.6 30.4V24H11.2V22.4V20.8H9.6V22.4H4.8V20.8H3.2H1.6V22.4H0V32H9.6H12.8V30.4H9.6ZM8 30.4H1.6V24H8V30.4Z" fill="white"/>
<path d="M11.1996 9.60001H9.59961V11.2H11.1996V9.60001Z" fill="white"/>
<path d="M11.2 0H9.6H0V9.6H1.6V11.2H3.2V9.6H4.8V11.2H6.4V9.6H9.6V6.4H11.2V4.8H9.6V1.6H11.2H12.8V0H11.2ZM8 8H1.6V1.6H8V8Z" fill="white"/>
<path d="M20.8002 4.80002H19.2002V6.40002H20.8002V4.80002Z" fill="white"/>
<path d="M17.6 0H16V1.6H17.6V0Z" fill="white"/>
<path d="M19.2 9.59999V7.99999H17.6V6.39999H16V7.99999H12.8V6.39999H11.2V7.99999V9.59999H12.8V12.8H8V11.2H6.4V12.8H1.6V14.4H4.8V16H0V17.6H4.8V19.2H6.4V17.6H8V19.2H9.6V17.6H12.8V16H11.2V14.4H12.8H14.4V16H16H17.6V14.4H16V12.8H14.4V9.59999H19.2ZM9.6 16H6.4V14.4H9.6V16Z" fill="white"/>
<path d="M14.4002 25.6V24V22.4H12.8002V24H11.2002V25.6H12.8002V27.2H11.2002V28.8H14.4002V27.2H16.0002V25.6H14.4002Z" fill="white"/>
<path d="M28.8004 28.8V27.2H27.2004V28.8H22.4004V30.4H25.6004V32H27.2004V30.4H30.4004V32H32.0004V30.4V28.8H28.8004Z" fill="white"/>
<path d="M30.3998 22.4V24H28.7998V25.6H31.9998V24V22.4H30.3998Z" fill="white"/>
</svg>
