<svg width="28" height="32" viewBox="0 0 28 32" fill="none" xmlns="http://www.w3.org/2000/svg">
<path d="M19.0112 17.4604L21.9242 18.0385C22.0266 19.6755 23.4366 20.9194 25.0735 20.8171C26.7105 20.7147 27.9544 19.3048 27.8521 17.6678C27.7497 16.0309 26.3397 14.7869 24.7028 14.8893C23.6416 14.9556 22.6968 15.5843 22.2258 16.5375L19.2113 15.9393C19.1786 14.7975 18.7367 13.7054 17.9663 12.862L22.0299 7.12161C23.9116 7.93771 26.0986 7.07384 26.9146 5.19223C27.7307 3.31062 26.8669 1.12358 24.9853 0.30755C23.1036 -0.508478 20.9166 0.355317 20.1006 2.23693C19.515 3.58705 19.7819 5.15549 20.781 6.23592L16.7656 11.9083C14.8445 10.8302 12.4351 11.2073 10.9354 12.8209L5.67356 8.7346C6.36833 7.24509 5.72401 5.47447 4.23457 4.7797C2.74505 4.08493 0.974436 4.72926 0.279664 6.2187C-0.415108 7.70822 0.229218 9.47883 1.71866 10.1736C2.68496 10.6243 3.81859 10.5236 4.69035 9.90958L10.081 14.0958C9.21501 15.9871 9.67355 18.2215 11.2145 19.6188L7.98546 24.1854C6.0792 23.1226 3.6723 23.8064 2.60955 25.7127C1.5468 27.6189 2.23055 30.0258 4.13681 31.0886C6.04307 32.1513 8.44997 31.4676 9.51272 29.5613C10.2919 28.1636 10.1514 26.4341 9.15668 25.1805L12.498 20.4547C13.6623 20.9712 14.9848 21.0003 16.1706 20.5355L20.165 26.4361C18.9435 27.8274 19.0811 29.9454 20.4723 31.1668C21.8635 32.3883 23.9815 32.2507 25.203 30.8595C26.4245 29.4683 26.2868 27.3503 24.8957 26.1289C23.9391 25.2889 22.5894 25.0633 21.4116 25.5465L17.4908 19.7546C18.2108 19.1547 18.7394 18.3572 19.0112 17.4604ZM24.8867 16.4145C25.6809 16.4145 26.3247 17.0582 26.3247 17.8524C26.3247 18.6465 25.6809 19.2903 24.8867 19.2903C24.0926 19.2903 23.4488 18.6465 23.4488 17.8524C23.4495 17.0585 24.0929 16.4151 24.8867 16.4145ZM23.4976 1.54904C24.6974 1.54912 25.6701 2.52185 25.6701 3.7217C25.67 4.92155 24.6973 5.89428 23.4974 5.8942C22.2976 5.89412 21.3249 4.92147 21.3249 3.72162C21.3264 2.52223 22.2983 1.55035 23.4976 1.54904ZM2.98197 8.92108C2.18822 8.92016 1.54497 8.27691 1.54405 7.48316C1.54405 6.68902 2.18784 6.04523 2.98197 6.04523C3.77611 6.04523 4.4199 6.68902 4.4199 7.48316C4.4199 8.27729 3.77618 8.92108 2.98197 8.92108ZM6.07109 30.0381C4.74003 30.0381 3.66105 28.9591 3.66113 27.628C3.6612 26.297 4.74018 25.218 6.07124 25.2181C7.40222 25.2181 8.4812 26.2971 8.4812 27.6281C8.47975 28.9585 7.40154 30.0367 6.07109 30.0381ZM22.6834 26.8269C23.6919 26.8281 24.509 27.6452 24.5102 28.6537C24.5102 29.6627 23.6923 30.4805 22.6834 30.4805C21.6744 30.4805 20.8566 29.6627 20.8566 28.6537C20.8566 27.6448 21.6745 26.8269 22.6834 26.8269ZM14.4311 19.3335C12.6356 19.3315 11.1805 17.8764 11.1785 16.0809C11.1785 14.2846 12.6348 12.8284 14.4311 12.8284C16.2274 12.8284 17.6836 14.2846 17.6836 16.0809C17.6836 17.8773 16.2274 19.3335 14.4311 19.3335Z" fill="#095DC5"/>
</svg>
