<svg width="34" height="29" viewBox="0 0 34 29" fill="none" xmlns="http://www.w3.org/2000/svg">
<path d="M26.7461 21.3772L28.37 23.0103" stroke="white" stroke-width="2" stroke-miterlimit="10" stroke-linecap="round" stroke-linejoin="round"/>
<path d="M26.2393 25.1572L30.4999 20.8635" stroke="white" stroke-width="2" stroke-miterlimit="10" stroke-linecap="round" stroke-linejoin="round"/>
<path d="M32.472 27.159C31.7676 27.8687 30.6257 27.8687 29.9213 27.159L27.0947 24.2955L29.6454 21.7251L32.472 24.5885C33.1763 25.2983 33.1763 26.4492 32.472 27.159Z" stroke="white" stroke-width="2" stroke-miterlimit="10" stroke-linecap="round" stroke-linejoin="round"/>
<path d="M6.97586 15.9121H3.25684V19.2896H6.97586V15.9121Z" stroke="white" stroke-width="2" stroke-miterlimit="10" stroke-linecap="round" stroke-linejoin="round"/>
<path d="M14.314 15.9121H1V11.7051C1 10.1664 2.24689 8.91904 3.78498 8.91904H21.5315" stroke="white" stroke-width="2" stroke-miterlimit="10" stroke-linecap="round" stroke-linejoin="round"/>
<path d="M22.2072 8.91903H3.10938L4.72167 3.04625C5.05338 1.83805 6.15673 1 7.41578 1H17.9008C19.1599 1 20.2632 1.83805 20.5949 3.04625L22.2072 8.91903Z" stroke="white" stroke-width="2" stroke-miterlimit="10" stroke-linecap="round" stroke-linejoin="round"/>
<path d="M21.6934 6.81039H23.697" stroke="white" stroke-width="2" stroke-miterlimit="10" stroke-linecap="round" stroke-linejoin="round"/>
<path d="M1.61914 6.81039H3.62272" stroke="white" stroke-width="2" stroke-miterlimit="10" stroke-linecap="round" stroke-linejoin="round"/>
<path d="M8.7207 12.4156H15.3606" stroke="white" stroke-width="2" stroke-miterlimit="10" stroke-linecap="round" stroke-linejoin="round"/>
<path d="M4.53418 12.4059H5.31129" stroke="white" stroke-width="2" stroke-miterlimit="10" stroke-linecap="round" stroke-linejoin="round"/>
<path d="M21.5783 23.3979C25.5458 23.3979 28.7621 20.1567 28.7621 16.1585C28.7621 12.1602 25.5458 8.91904 21.5783 8.91904C17.6108 8.91904 14.3945 12.1602 14.3945 16.1585C14.3945 20.1567 17.6108 23.3979 21.5783 23.3979Z" stroke="white" stroke-width="2" stroke-miterlimit="10" stroke-linecap="round" stroke-linejoin="round"/>
<path d="M19.7217 16.0757L21.4032 17.6525L23.6963 14.4887" stroke="white" stroke-width="2" stroke-miterlimit="10" stroke-linecap="round" stroke-linejoin="round"/>
</svg>
