<svg width="23" height="32" viewBox="0 0 23 32" fill="none" xmlns="http://www.w3.org/2000/svg">
<path d="M22.8125 16C22.8203 13.5159 22.0095 11.0984 20.5056 9.12125C19.1078 7.28292 17.1896 5.90733 15 5.17312V1.71875C14.9993 1.26311 14.818 0.826326 14.4958 0.504141C14.1737 0.181956 13.7369 0.000661304 13.2812 0L9.53123 0C9.07559 0.000661304 8.6388 0.181956 8.31662 0.504141C7.99443 0.826326 7.81314 1.26311 7.81248 1.71875V5.17312C5.6229 5.90733 3.70466 7.28292 2.30685 9.12125C1.17806 10.615 0.434193 12.3635 0.140882 14.2126C-0.15243 16.0618 0.0138243 17.9547 0.624978 19.7244V28.4062C0.625309 28.6962 0.74065 28.9742 0.945696 29.1793C1.15074 29.3843 1.42875 29.4997 1.71873 29.5H1.74998V31.5312C1.74998 31.6556 1.79936 31.7748 1.88727 31.8627C1.97518 31.9506 2.09441 32 2.21873 32C2.34305 32 2.46228 31.9506 2.55018 31.8627C2.63809 31.7748 2.68748 31.6556 2.68748 31.5312V29.5H2.96873C3.25871 29.4997 3.53671 29.3843 3.74176 29.1793C3.94681 28.9742 4.06215 28.6962 4.06248 28.4062V24.7188C6.11631 26.4534 8.71788 27.405 11.4062 27.405C14.0946 27.405 16.6962 26.4534 18.75 24.7188V28.4062C18.7503 28.6962 18.8657 28.9742 19.0707 29.1793C19.2757 29.3843 19.5538 29.4997 19.8437 29.5H19.875V31.5312C19.875 31.6556 19.9244 31.7748 20.0123 31.8627C20.1002 31.9506 20.2194 32 20.3437 32C20.4681 32 20.5873 31.9506 20.6752 31.8627C20.7631 31.7748 20.8125 31.6556 20.8125 31.5312V29.5H21.0937C21.3837 29.4997 21.6617 29.3843 21.8668 29.1793C22.0718 28.9742 22.1872 28.6962 22.1875 28.4062V19.7244C22.6022 18.5265 22.8134 17.2676 22.8125 16ZM9.53123 14.6875H13.2812C13.7369 14.6868 14.1737 14.5055 14.4958 14.1834C14.818 13.8612 14.9993 13.4244 15 12.9688V11.88C15.8393 12.6117 16.4352 13.5822 16.7082 14.6617C16.9811 15.7412 16.918 16.8783 16.5273 17.921C16.1366 18.9637 15.4369 19.8623 14.5218 20.4967C13.6067 21.131 12.5197 21.4709 11.4062 21.4709C10.2927 21.4709 9.20579 21.131 8.29067 20.4967C7.37555 19.8623 6.67588 18.9637 6.28518 17.921C5.89448 16.8783 5.83138 15.7412 6.1043 14.6617C6.37722 13.5822 6.97317 12.6117 7.81248 11.88V12.9688C7.81314 13.4244 7.99443 13.8612 8.31662 14.1834C8.6388 14.5055 9.07559 14.6868 9.53123 14.6875ZM7.81248 10.7C6.67769 11.469 5.81948 12.5817 5.36399 13.8746C4.90849 15.1675 4.87973 16.5724 5.28192 17.8829C5.68411 19.1934 6.49605 20.3403 7.59842 21.1551C8.70078 21.9698 10.0354 22.4096 11.4062 22.4096C12.777 22.4096 14.1117 21.9698 15.214 21.1551C16.3164 20.3403 17.1283 19.1934 17.5305 17.8829C17.9327 16.5724 17.904 15.1675 17.4485 13.8746C16.993 12.5817 16.1348 11.469 15 10.7V8.8875C16.5996 9.69576 17.8801 11.0197 18.6345 12.6454C19.389 14.2711 19.5734 16.1036 19.1579 17.8471C18.7425 19.5905 17.7515 21.143 16.3449 22.2537C14.9384 23.3645 13.1985 23.9686 11.4062 23.9686C9.61399 23.9686 7.87408 23.3645 6.46755 22.2537C5.06101 21.143 4.06997 19.5905 3.65453 17.8471C3.23908 16.1036 3.42348 14.2711 4.17793 12.6454C4.93239 11.0197 6.21285 9.69576 7.81248 8.8875V10.7ZM8.74998 1.71875C8.75031 1.51165 8.83273 1.31313 8.97917 1.16669C9.12561 1.02025 9.32413 0.937831 9.53123 0.9375H13.2812C13.4883 0.937831 13.6869 1.02025 13.8333 1.16669C13.9797 1.31313 14.0621 1.51165 14.0625 1.71875V12.9688C14.0621 13.1758 13.9797 13.3744 13.8333 13.5208C13.6869 13.6673 13.4883 13.7497 13.2812 13.75H9.53123C9.32413 13.7497 9.12561 13.6673 8.97917 13.5208C8.83273 13.3744 8.75031 13.1758 8.74998 12.9688V1.71875ZM2.96873 28.5625H1.71873C1.67729 28.5625 1.63755 28.546 1.60824 28.5167C1.57894 28.4874 1.56248 28.4477 1.56248 28.4062V21.7563C2.00283 22.5063 2.52703 23.204 3.12498 23.8356V28.4062C3.12498 28.4477 3.10852 28.4874 3.07921 28.5167C3.04991 28.546 3.01017 28.5625 2.96873 28.5625ZM0.937478 16C0.937478 11.615 3.73435 7.65875 7.81248 6.16563V7.85313C6.23342 8.55113 4.89092 9.69247 3.9479 11.1386C3.00488 12.5848 2.50189 14.2736 2.49998 16C2.49998 20.9113 6.4956 24.9062 11.4062 24.9062C16.3169 24.9062 20.3125 20.9113 20.3125 16C20.3108 14.2733 19.8079 12.5843 18.8649 11.1379C17.9219 9.6915 16.5792 8.54997 15 7.85187V6.16437C19.0781 7.6575 21.875 11.6137 21.875 15.9987C21.875 21.7712 17.1787 26.4675 11.4062 26.4675C5.63373 26.4675 0.937478 21.7725 0.937478 16ZM21.25 28.4062C21.25 28.4477 21.2335 28.4874 21.2042 28.5167C21.1749 28.546 21.1352 28.5625 21.0937 28.5625H19.8437C19.8023 28.5625 19.7625 28.546 19.7332 28.5167C19.7039 28.4874 19.6875 28.4477 19.6875 28.4062V23.8356C20.2854 23.204 20.8096 22.5063 21.25 21.7563V28.4062Z" fill="white"/>
<path d="M10.1558 7.73555H11.524L10.1558 9.1068C10.1111 9.15007 10.0754 9.20181 10.0509 9.25901C10.0263 9.31621 10.0134 9.37772 10.0129 9.43996C10.0124 9.5022 10.0243 9.56392 10.0479 9.62152C10.0715 9.67912 10.1063 9.73144 10.1503 9.77543C10.1944 9.81942 10.2467 9.8542 10.3043 9.87774C10.362 9.90128 10.4237 9.91312 10.4859 9.91255C10.5482 9.91198 10.6097 9.89902 10.6669 9.87442C10.724 9.84983 10.7757 9.81409 10.819 9.7693L12.9896 7.59868C13.0553 7.53316 13.1 7.44962 13.1182 7.35864C13.1364 7.26766 13.1272 7.17333 13.0917 7.0876C13.0562 7.00187 12.9961 6.92859 12.919 6.87705C12.8418 6.8255 12.7511 6.79801 12.6583 6.79805H11.2877L12.5046 5.58055C12.5845 5.49133 12.6272 5.37489 12.624 5.25515C12.6208 5.13541 12.5718 5.02146 12.4872 4.93668C12.4026 4.8519 12.2887 4.80273 12.169 4.79927C12.0492 4.7958 11.9327 4.83831 11.8433 4.91805L9.82459 6.93743C9.75912 7.00298 9.71454 7.08647 9.69648 7.17734C9.67843 7.26822 9.68771 7.3624 9.72316 7.44801C9.7586 7.53361 9.81862 7.60679 9.89563 7.6583C9.97264 7.70981 10.0632 7.73735 10.1558 7.73743V7.73555Z" fill="white"/>
</svg>
