<svg width="90" height="50" viewBox="0 0 90 89" fill="none" xmlns="http://www.w3.org/2000/svg">
<g filter="url(#filter0_d_165_1273)">
<rect x="24.2959" y="13" width="41.413" height="40" rx="11.4286" fill="white"/>
<rect x="23.7245" y="12.4286" width="42.5559" height="41.1429" rx="12" stroke="#F3F7F5" stroke-width="1.14286"/>
</g>
<path fill-rule="evenodd" clip-rule="evenodd" d="M41.2072 26.6082C40.4618 26.7156 39.8724 27.0037 39.3341 27.5236C38.7806 28.0584 38.4768 28.6554 38.3762 29.4061C38.3368 29.6998 38.3368 36.2983 38.3762 36.5921C38.4768 37.3428 38.7806 37.9398 39.3341 38.4745C39.8877 39.0093 40.5057 39.3028 41.2829 39.3999C41.587 39.4379 48.4177 39.4379 48.7218 39.3999C49.499 39.3028 50.117 39.0093 50.6705 38.4745C51.2241 37.9398 51.5279 37.3428 51.6285 36.5921C51.6679 36.2983 51.6679 29.6998 51.6285 29.4061C51.5279 28.6554 51.2241 28.0584 50.6705 27.5236C50.117 26.9889 49.499 26.6954 48.7218 26.5982C48.3888 26.5566 41.5021 26.5658 41.2072 26.6082ZM48.9984 27.7439C49.2908 27.8423 49.3564 27.874 49.5969 28.0339C49.9831 28.2907 50.2865 28.6891 50.4395 29.1403L50.526 29.3958V32.9991C50.526 36.4478 50.524 36.6088 50.4775 36.753C50.3014 37.2991 50.0021 37.7018 49.5558 37.9934C49.3653 38.1179 49.1978 38.1931 48.9263 38.2758L48.7325 38.335H45.0023H41.2722L41.0078 38.2513C40.2792 38.0209 39.7699 37.5054 39.5272 36.753C39.4807 36.6088 39.4786 36.4478 39.4786 32.9991C39.4786 29.5504 39.4807 29.3893 39.5272 29.2451C39.7122 28.6717 40.0339 28.2554 40.5168 27.9647C40.7195 27.8427 41.0671 27.7116 41.2831 27.6757C41.3486 27.6649 43.0574 27.6576 45.0803 27.6596L48.7585 27.6632L48.9984 27.7439ZM48.4335 28.7408C48.2483 28.7796 48.1424 28.8352 48.0179 28.9591C47.8481 29.1281 47.7966 29.2593 47.7972 29.5213C47.7976 29.7167 47.807 29.7643 47.8664 29.8729C48.0098 30.1347 48.2522 30.2878 48.5534 30.3068C48.7733 30.3207 48.8904 30.2899 49.0762 30.1692C49.5935 29.8335 49.5341 29.0674 48.9707 28.8084C48.7782 28.7199 48.6253 28.7007 48.4335 28.7408ZM44.577 29.8117C43.3209 29.9799 42.2507 30.8257 41.8598 31.959C41.7262 32.3462 41.6896 32.5702 41.6896 32.9991C41.6896 33.4283 41.7261 33.6513 41.8603 34.0411C42.1731 34.9499 42.9846 35.7319 43.9308 36.0364C44.3264 36.1637 44.5598 36.1992 45.0023 36.1992C45.4449 36.1992 45.6783 36.1637 46.0739 36.0364C47.0201 35.7319 47.8315 34.9499 48.1444 34.0411C48.2786 33.6513 48.3151 33.4283 48.3151 32.9991C48.3151 32.4363 48.2018 31.9769 47.9498 31.5186C47.4704 30.6466 46.6415 30.0472 45.6392 29.8476C45.389 29.7978 44.8237 29.7787 44.577 29.8117ZM45.6712 30.9617C45.9484 31.0507 46.0234 31.0855 46.2371 31.2247C46.6731 31.5087 46.9685 31.9019 47.1371 32.4226C47.1896 32.5849 47.1976 32.6617 47.1976 32.9991C47.1976 33.4136 47.1668 33.5654 47.0154 33.8961C46.8226 34.3173 46.3659 34.7579 45.9285 34.9447C45.5888 35.0899 45.4307 35.1197 45.0023 35.1197C44.574 35.1197 44.4159 35.0899 44.0762 34.9447C43.6388 34.7579 43.1821 34.3173 42.9893 33.8961C42.8379 33.5654 42.8071 33.4136 42.8071 32.9991C42.8071 32.6617 42.8151 32.5849 42.8676 32.4226C42.9561 32.1494 43.0339 31.9917 43.1831 31.7832C43.4769 31.3725 43.8884 31.0872 44.3926 30.9442C44.6478 30.8719 44.6875 30.868 45.0803 30.8769C45.3895 30.8838 45.4598 30.8939 45.6712 30.9617Z" fill="#4E4E4E"/>
<defs>
<filter id="filter0_d_165_1273" x="0.296178" y="0.428606" width="89.4125" height="87.9999" filterUnits="userSpaceOnUse" color-interpolation-filters="sRGB">
<feFlood flood-opacity="0" result="BackgroundImageFix"/>
<feColorMatrix in="SourceAlpha" type="matrix" values="0 0 0 0 0 0 0 0 0 0 0 0 0 0 0 0 0 0 127 0" result="hardAlpha"/>
<feMorphology radius="11.4286" operator="erode" in="SourceAlpha" result="effect1_dropShadow_165_1273"/>
<feOffset dy="11.4286"/>
<feGaussianBlur stdDeviation="17.1429"/>
<feComposite in2="hardAlpha" operator="out"/>
<feColorMatrix type="matrix" values="0 0 0 0 0 0 0 0 0 0 0 0 0 0 0 0 0 0 0.2 0"/>
<feBlend mode="normal" in2="BackgroundImageFix" result="effect1_dropShadow_165_1273"/>
<feBlend mode="normal" in="SourceGraphic" in2="effect1_dropShadow_165_1273" result="shape"/>
</filter>
</defs>
</svg>
