<svg width="176" height="96" viewBox="0 0 176 96" fill="none" xmlns="http://www.w3.org/2000/svg">
<rect width="176" height="96" rx="16" fill="white"/>
<g clip-path="url(#clip0_165_882)">
<path d="M70.0631 49.9752L69.336 52.031H69.2754C69.1542 51.5674 68.932 50.862 68.5684 50.0155L64.6701 40.2403H60.8525V55.8202H63.3774V46.2062C63.3774 45.6016 63.3774 44.9163 63.3572 44.0698C63.337 43.6465 63.2966 43.324 63.2764 43.0822H63.337C63.4582 43.6868 63.5996 44.1302 63.7006 44.4124L68.3866 55.7798H70.1641L74.8098 44.3116C74.9108 44.0496 75.0118 43.5256 75.1128 43.0822H75.1734C75.1128 44.231 75.0724 45.2589 75.0522 45.8837V55.7597H77.7386V40.2H74.0625L70.0631 49.9752ZM80.2837 44.5938H82.9095V55.7597H80.2837V44.5938ZM81.6168 39.8775C81.1724 39.8775 80.8088 40.0388 80.5058 40.3209C80.2029 40.6031 80.0413 40.9659 80.0413 41.4093C80.0413 41.8326 80.2029 42.1953 80.5058 42.4775C80.8088 42.7597 81.1724 42.9008 81.6168 42.9008C82.0611 42.9008 82.4449 42.7395 82.7277 42.4775C83.0307 42.1953 83.1923 41.8326 83.1923 41.4093C83.1923 40.986 83.0307 40.6233 82.7277 40.3209C82.4651 40.0388 82.0813 39.8775 81.6168 39.8775ZM92.2211 44.493C91.7363 44.3922 91.2313 44.3318 90.7466 44.3318C89.5549 44.3318 88.4641 44.5938 87.5552 45.1178C86.6462 45.6419 85.9191 46.3674 85.4545 47.2744C84.9698 48.2016 84.7274 49.2698 84.7274 50.4992C84.7274 51.5674 84.9698 52.5147 85.4343 53.3814C85.8989 54.2279 86.5453 54.9132 87.4138 55.3767C88.2419 55.8403 89.2115 56.0822 90.3022 56.0822C91.5545 56.0822 92.6251 55.8202 93.4734 55.3364L93.4936 55.3163V52.8977L93.3926 52.9783C93.0088 53.2605 92.5645 53.5023 92.1201 53.6434C91.6555 53.8047 91.2313 53.8853 90.8678 53.8853C89.8174 53.8853 88.9893 53.5829 88.4035 52.9178C87.7976 52.2729 87.4946 51.386 87.4946 50.2775C87.4946 49.1287 87.7976 48.2217 88.4237 47.5566C89.0499 46.8915 89.878 46.5488 90.888 46.5488C91.7363 46.5488 92.6049 46.831 93.3926 47.3953L93.4936 47.476V44.9163L93.4734 44.8961C93.13 44.755 92.7462 44.5938 92.2211 44.493ZM100.886 44.4124C100.24 44.4124 99.634 44.614 99.1088 45.0372C98.6645 45.4 98.3615 45.924 98.0989 46.5488H98.0787V44.5938H95.4529V55.7597H98.0787V50.0558C98.0787 49.0884 98.2807 48.2822 98.7251 47.6977C99.1694 47.093 99.735 46.7907 100.422 46.7907C100.664 46.7907 100.907 46.8512 101.209 46.8915C101.492 46.9721 101.694 47.0527 101.836 47.1535L101.937 47.2341V44.614L101.876 44.5938C101.694 44.4729 101.331 44.4124 100.886 44.4124ZM108.037 44.3519C106.199 44.3519 104.724 44.8961 103.694 45.9643C102.644 47.0326 102.139 48.5039 102.139 50.3581C102.139 52.0915 102.664 53.5023 103.674 54.5302C104.684 55.538 106.057 56.062 107.774 56.062C109.572 56.062 111.006 55.5178 112.036 54.4295C113.086 53.3411 113.591 51.8899 113.591 50.0961C113.591 48.3225 113.107 46.9116 112.117 45.8837C111.167 44.8558 109.774 44.3519 108.037 44.3519ZM110.137 52.938C109.653 53.5628 108.885 53.8651 107.936 53.8651C106.986 53.8651 106.219 53.5628 105.673 52.8977C105.128 52.2729 104.865 51.3659 104.865 50.2171C104.865 49.0279 105.148 48.1209 105.673 47.476C106.219 46.831 106.966 46.5085 107.915 46.5085C108.845 46.5085 109.572 46.8109 110.097 47.4357C110.622 48.0605 110.905 48.9674 110.905 50.1566C110.864 51.3659 110.642 52.3132 110.137 52.938ZM119.449 49.2295C118.621 48.8868 118.096 48.6248 117.853 48.4031C117.651 48.2016 117.55 47.9194 117.55 47.5566C117.55 47.2543 117.671 46.9519 117.974 46.7504C118.277 46.5488 118.621 46.4481 119.126 46.4481C119.57 46.4481 120.035 46.5287 120.479 46.6496C120.923 46.7705 121.327 46.9519 121.651 47.1938L121.752 47.2744V44.8155L121.691 44.7953C121.388 44.6744 120.984 44.5535 120.499 44.4527C120.014 44.3721 119.57 44.3318 119.207 44.3318C117.954 44.3318 116.924 44.6341 116.116 45.2992C115.308 45.924 114.924 46.7705 114.924 47.7581C114.924 48.2822 115.005 48.7457 115.187 49.1287C115.369 49.5116 115.631 49.8744 115.995 50.1767C116.358 50.4589 116.884 50.7814 117.611 51.0837C118.217 51.3457 118.681 51.5473 118.964 51.7085C119.247 51.8698 119.429 52.0512 119.57 52.1922C119.671 52.3535 119.732 52.555 119.732 52.8171C119.732 53.5628 119.166 53.9256 118.015 53.9256C117.57 53.9256 117.106 53.845 116.56 53.6636C116.015 53.4822 115.51 53.2202 115.086 52.9178L114.985 52.8372V55.3969L115.046 55.4171C115.429 55.5985 115.894 55.7194 116.459 55.8605C117.025 55.9612 117.53 56.0419 117.974 56.0419C119.328 56.0419 120.439 55.7395 121.226 55.0744C122.034 54.4295 122.458 53.6031 122.458 52.5349C122.458 51.7891 122.257 51.124 121.812 50.6202C121.226 50.1364 120.499 49.6326 119.449 49.2295ZM129.387 44.3519C127.549 44.3519 126.074 44.8961 125.044 45.9643C124.014 47.0326 123.489 48.5039 123.489 50.3581C123.489 52.0915 124.014 53.5023 125.024 54.5302C126.034 55.538 127.407 56.062 129.124 56.062C130.922 56.062 132.356 55.5178 133.386 54.4295C134.436 53.3411 134.941 51.8899 134.941 50.0961C134.941 48.3225 134.456 46.9116 133.467 45.8837C132.517 44.8558 131.124 44.3519 129.387 44.3519ZM131.467 52.938C130.982 53.5628 130.215 53.8651 129.265 53.8651C128.296 53.8651 127.549 53.5628 127.003 52.8977C126.458 52.2729 126.195 51.3659 126.195 50.2171C126.195 49.0279 126.478 48.1209 127.003 47.476C127.549 46.831 128.296 46.5085 129.245 46.5085C130.154 46.5085 130.902 46.8109 131.427 47.4357C131.952 48.0605 132.235 48.9674 132.235 50.1566C132.235 51.3659 131.972 52.3132 131.467 52.938ZM148.979 46.7504V44.5938H146.333V41.2884L146.253 41.3085L143.748 42.0543L143.687 42.0744V44.5938H139.728V43.1829C139.728 42.538 139.89 42.0341 140.173 41.7116C140.456 41.3891 140.88 41.2279 141.405 41.2279C141.768 41.2279 142.152 41.3085 142.576 41.4899L142.677 41.5504V39.2729L142.617 39.2527C142.253 39.1318 141.768 39.0512 141.142 39.0512C140.355 39.0512 139.668 39.2326 139.042 39.5349C138.415 39.8775 137.951 40.3411 137.607 40.9659C137.264 41.5705 137.082 42.2558 137.082 43.0419V44.5938H135.244V46.7302H137.082V55.7597H139.728V46.7504H143.687V52.4946C143.687 54.8527 144.798 56.0419 147.02 56.0419C147.384 56.0419 147.767 55.9814 148.131 55.9209C148.515 55.8403 148.798 55.7395 148.959 55.6589L148.979 55.6388V53.4822L148.878 53.5628C148.717 53.6636 148.575 53.7442 148.333 53.8047C148.131 53.8651 147.949 53.8853 147.808 53.8853C147.283 53.8853 146.919 53.7643 146.657 53.462C146.414 53.1798 146.293 52.7163 146.293 52.031V46.7504H148.979Z" fill="#737373"/>
<path d="M27 35H39.3818V47.355H27V35Z" fill="#F25022"/>
<path d="M40.6748 35H53.0566V47.355H40.6748V35Z" fill="#7FBA00"/>
<path d="M27 48.645H39.3818V61H27V48.645Z" fill="#00A4EF"/>
<path d="M40.6748 48.645H53.0566V61H40.6748V48.645Z" fill="#FFB900"/>
</g>
<defs>
<clipPath id="clip0_165_882">
<rect width="122" height="26" fill="white" transform="translate(27 35)"/>
</clipPath>
</defs>
</svg>
