<svg width="98" height="34" viewBox="0 0 98 34" fill="none" xmlns="http://www.w3.org/2000/svg">
<g clip-path="url(#clip0_364_323)">
<path fill-rule="evenodd" clip-rule="evenodd" d="M86.3764 15.8409L80.1392 26.6752L74.8177 26.6965L86.3764 6.30391L97.8919 26.6965H92.4861L86.3764 15.8398V15.8409ZM69.5815 21.98H75.5416L72.7744 26.6965H65.0061L65.0271 20.9537V6.42928H69.6036L69.5826 21.98H69.5815ZM53.2355 6.43034C58.9185 6.45159 63.516 10.9778 63.495 16.573C63.4739 22.1479 58.8763 26.6752 53.1923 26.6752C47.5304 26.654 42.9329 22.1277 42.9329 16.5315C42.954 10.9566 47.5515 6.43034 53.2355 6.43034ZM53.2145 21.9598C56.2577 21.9598 58.7046 19.549 58.7046 16.573C58.7267 13.598 56.2577 11.1659 53.2355 11.1659C50.2123 11.1447 47.7433 13.5767 47.7433 16.5528C47.7222 19.5278 50.1912 21.9598 53.2134 21.9598H53.2145ZM34.4617 14.9633C34.3984 14.1239 34.1845 13.0136 33.8652 11.9458C33.2082 9.74016 32.066 7.71248 30.5238 6.01384C29.7145 5.13409 28.7998 4.31597 27.4362 3.35228C26.3968 2.83505 25.3748 2.28295 24.3719 1.69691C23.7122 1.31972 22.924 0.857531 21.8818 0.522844C20.6461 0.228746 19.383 0.0674088 18.1136 0.0415315C16.8807 -0.000968479 15.6446 0.105282 14.4528 0.334782C13.1967 0.544094 12.1535 0.878782 10.7699 1.21453C7.64024 2.57666 5.21447 4.63047 3.12802 7.35578C-4.15137 17.6036 2.42622 31.9601 14.5803 33.6569C16.5814 33.93 18.5825 33.8248 20.4761 33.3849L21.8176 33.029C21.8597 33.0077 21.924 32.9865 21.9662 32.9865L23.4994 32.4C23.5837 32.3575 23.648 32.3362 23.7333 32.2948L24.3719 32.0015C25.5971 31.3918 26.7473 30.6394 27.7987 29.7597C26.8416 30.6365 25.8007 31.4156 24.6912 32.0855L24.7544 32.128C24.9683 32.0642 25.1591 32.0015 25.3719 31.9601C25.3719 31.9601 25.3719 32.2948 25.3298 32.2321C24.9894 32.4839 25.5215 32.2533 26.2023 31.8963C26.8841 31.5404 27.5437 31.0995 28.1391 30.5969C29.0127 29.8638 29.7788 29.0669 30.8641 27.7685C31.9706 25.8188 33.3552 24.121 33.9938 21.8366C34.2067 21.2288 34.3974 20.517 34.526 19.7828C34.6524 19.0497 34.7388 18.2953 34.7388 17.5197C34.7177 16.744 34.6324 15.9472 34.4617 14.9633ZM18.71 32.1907C22.4351 31.6031 25.5637 29.5291 28.118 26.6997C28.8209 25.6722 29.3741 24.7287 30.0548 23.7023C30.9063 21.606 30.8431 19.7413 31.1191 18.4217C31.4606 16.0311 30.6513 14.1037 29.9705 12.0499C28.9273 9.66034 27.5437 7.87959 25.1169 6.49622C18.9861 2.68184 10.6424 3.74966 6.66234 9.45103C6.64127 9.45103 6.53379 9.59766 6.32093 9.89091C6.59807 8.71791 7.30093 8.02622 8.00273 7.35472C10.0892 5.63666 12.516 4.27347 15.2832 3.60409C18.4129 3.26834 21.5194 3.60409 24.3076 4.96622C28.4805 7.35472 31.2477 11.1075 31.9495 15.5487V19.6574C31.077 26.3852 25.3298 31.499 18.71 32.1907ZM34.0149 16.8907C33.8652 7.04128 24.138 0.397469 14.6657 1.73941C11.8985 2.43003 8.87525 3.81341 6.72557 5.74184C5.68234 6.43247 5.1934 7.71172 4.15017 8.7381C-0.0227299 14.8793 0.702259 22.7387 5.89521 27.5178C6.56132 28.1818 7.27258 28.7981 8.02381 29.3623C3.6823 26.7411 1.72336 22.779 1.04263 17.9606C1.04263 16.2415 1.38299 14.5436 1.74443 12.8255C4.1723 5.30091 11.8131 -0.168843 20.1368 1.21453C21.5204 1.55028 22.904 1.90622 24.3097 2.24197C26.0548 2.93259 27.7787 3.96003 29.1623 5.32322C30.5459 6.68428 31.5891 8.40341 32.6323 10.1002C33.3341 11.4634 33.6756 13.1815 34.0159 14.5436C34.0792 15.3192 34.0792 16.1161 34.0159 16.8917L34.0149 16.8907Z" fill="#4E4E4E"/>
<path fill-rule="evenodd" clip-rule="evenodd" d="M25.3729 17.0383C25.3729 21.2723 21.8396 24.7095 17.476 24.7095C13.1134 24.7095 9.5791 21.2723 9.5791 17.0383C9.5791 12.8053 13.1124 9.36807 17.476 9.36807C21.8396 9.36807 25.3729 12.8053 25.3729 17.0393V17.0383Z" fill="white"/>
<path fill-rule="evenodd" clip-rule="evenodd" d="M25.416 15.7388C25.3095 15.1523 25.1388 14.6912 24.9692 14.042C24.2874 12.6161 23.2874 11.5058 21.967 10.5623C17.0291 7.27284 10.2386 10.437 9.51572 16.0544C9.23964 18.2761 10.0268 20.4138 11.4315 22.049C11.0057 21.6081 10.5379 21.148 10.2186 20.6231L10.1764 20.6657C10.2186 20.791 10.3893 20.875 10.4314 21.0003C10.4314 21.0003 10.2607 21.0003 10.3039 20.9791C10.1764 20.8335 10.2829 21.0641 10.4736 21.3775C10.6443 21.692 10.8572 21.9863 11.1122 22.2583C11.4747 22.6568 11.8572 23.0127 12.4958 23.4951C13.4336 23.9764 14.2629 24.6054 15.3483 24.8986C15.6465 24.9836 15.9869 25.0665 16.3283 25.1292C16.6897 25.193 17.0301 25.2142 17.4137 25.2142C17.7751 25.2142 18.1587 25.1717 18.6266 25.0867C19.109 25.0294 19.5859 24.9317 20.0523 24.7945C21.094 24.4784 22.0537 23.9342 22.8627 23.2008C23.2673 22.8246 23.8427 22.3423 24.2884 21.7133C24.6509 21.0014 24.6931 20.6444 24.8638 20.3299C25.0334 20.0154 25.2463 19.6595 25.3959 19.1771C25.5179 18.6048 25.5891 18.0228 25.6088 17.4378C25.5877 16.8513 25.5456 16.285 25.417 15.7399L25.416 15.7388ZM20.3495 11.8416C21.0734 12.2602 21.1798 12.3229 20.7963 12.0509C21.3505 12.1763 21.6909 12.4908 22.0313 12.8053C22.8616 13.7488 23.5424 14.8591 23.8827 16.1373C24.0745 17.5833 23.9249 19.0294 23.3084 20.3087C22.202 22.2573 20.4348 23.5567 18.3273 23.9127C18.0934 23.9127 17.8383 23.9126 17.6034 23.9339C18.1998 23.8287 18.5834 23.4515 19.6687 23.0531C20.8384 22.6345 22.1588 20.6858 22.7984 19.5532C24.6709 16.472 22.457 13.6223 20.3495 11.8416ZM16.3483 23.9541C13.1133 23.6194 10.6222 20.9578 10.2818 17.8766C10.579 19.5957 11.6011 20.9153 12.9847 22.0894C13.4747 22.4039 14.1976 22.8438 14.6876 23.1583C15.518 23.4728 16.0069 23.8085 16.8162 23.9551H16.3483V23.9541ZM25.0535 18.359C24.9059 19.0092 24.7563 19.6371 24.6067 20.2874C24.2874 21.0843 23.8195 21.9013 23.1809 22.5505C22.5423 23.2008 21.7331 23.7033 20.9248 24.1857C20.2862 24.5204 19.4769 24.6883 18.8173 24.8551C18.4337 24.8976 17.9869 24.7297 17.6034 24.7095C22.3295 24.5831 25.5645 20.162 24.8627 15.7813C24.5213 14.5031 23.8406 13.3918 23.0102 12.2815C22.6699 11.7991 22.0091 11.5058 21.5202 11.0235C18.5612 9.15877 14.6454 9.53596 12.4104 11.9882C12.097 12.3105 11.8052 12.6533 11.5368 13.0146C12.7297 11.254 14.6454 10.0183 16.9437 9.66134C17.753 9.64009 18.5834 9.78777 19.3916 9.9344C22.9681 11.0235 25.6288 14.5031 25.0535 18.36V18.359Z" fill="#D7DF23"/>
</g>
<defs>
<clipPath id="clip0_364_323">
<rect width="98" height="34" fill="white"/>
</clipPath>
</defs>
</svg>
