<svg width="24" height="25" viewBox="0 0 24 25" fill="none" xmlns="http://www.w3.org/2000/svg">
<path opacity="0.1" fill-rule="evenodd" clip-rule="evenodd" d="M0 12.4468C0 5.81936 5.37258 0.446777 12 0.446777C18.6274 0.446777 24 5.81936 24 12.4468C24 19.0742 18.6274 24.4468 12 24.4468C5.37258 24.4468 0 19.0742 0 12.4468Z" fill="white"/>
<path fill-rule="evenodd" clip-rule="evenodd" d="M11.6406 10.2007L11.6658 10.616L11.2461 10.5651C9.71843 10.3702 8.38383 9.70923 7.25067 8.59913L6.69668 8.04832L6.55399 8.45507C6.25181 9.36179 6.44487 10.3194 7.0744 10.9634C7.41015 11.3193 7.33461 11.3701 6.75544 11.1583C6.55399 11.0905 6.37772 11.0397 6.36093 11.0651C6.30218 11.1244 6.50363 11.8955 6.66311 12.2006C6.88134 12.6243 7.32621 13.0395 7.81305 13.2853L8.22434 13.4802L7.73751 13.4886C7.26746 13.4886 7.25067 13.4971 7.30103 13.6751C7.46891 14.2259 8.13201 14.8106 8.87066 15.0648L9.39108 15.2428L8.93781 15.5139C8.26631 15.9037 7.4773 16.1241 6.68829 16.141C6.31057 16.1495 6 16.1834 6 16.2088C6 16.2935 7.02404 16.7681 7.61999 16.9545C9.40786 17.5053 11.5315 17.2681 13.1263 16.3274C14.2595 15.658 15.3926 14.3276 15.9214 13.0395C16.2068 12.3531 16.4922 11.099 16.4922 10.4973C16.4922 10.1075 16.5174 10.0567 16.9874 9.59059C17.2644 9.31942 17.5246 9.02283 17.575 8.93809C17.6589 8.77709 17.6505 8.77709 17.2224 8.92115C16.509 9.17537 16.4083 9.14147 16.7608 8.76014C17.021 8.48897 17.3316 7.99748 17.3316 7.85342C17.3316 7.828 17.2057 7.87037 17.063 7.94663C16.9119 8.03137 16.5761 8.15848 16.3243 8.23475L15.8711 8.37881L15.4598 8.09917C15.2331 7.94663 14.9142 7.77715 14.7463 7.72631C14.3182 7.60767 13.6635 7.62462 13.2774 7.7602C12.2282 8.14154 11.5651 9.12452 11.6406 10.2007Z" fill="white"/>
</svg>
