<svg width="24" height="25" viewBox="0 0 24 25" fill="none" xmlns="http://www.w3.org/2000/svg">
<path opacity="0.1" fill-rule="evenodd" clip-rule="evenodd" d="M0 12.4468C0 5.81936 5.37258 0.446777 12 0.446777C18.6274 0.446777 24 5.81936 24 12.4468C24 19.0742 18.6274 24.4468 12 24.4468C5.37258 24.4468 0 19.0742 0 12.4468Z" fill="white"/>
<path fill-rule="evenodd" clip-rule="evenodd" d="M18.3996 12.438C18.3996 12.8708 18.3555 13.303 18.269 13.7244C18.1846 14.1357 18.0596 14.5395 17.8958 14.9255C17.7359 15.3047 17.5374 15.6701 17.3055 16.0108C17.0771 16.3495 16.8139 16.6671 16.5248 16.9567C16.2351 17.2451 15.9164 17.5075 15.5779 17.7369C15.236 17.9672 14.8701 18.1653 14.4907 18.3261C14.1041 18.489 13.6994 18.6138 13.2884 18.698C12.8666 18.7848 12.4328 18.8291 11.9993 18.8291C11.5656 18.8291 11.1318 18.7848 10.7105 18.698C10.2989 18.6138 9.89422 18.489 9.50795 18.3261C9.12856 18.1653 8.76228 17.9672 8.42039 17.7369C8.08194 17.5075 7.76317 17.2451 7.47409 16.9567C7.18471 16.6671 6.92156 16.3495 6.6928 16.0108C6.46216 15.6701 6.26339 15.3046 6.10277 14.9255C5.93899 14.5395 5.81369 14.1356 5.72899 13.7244C5.64337 13.303 5.59961 12.8708 5.59961 12.438C5.59961 12.0049 5.64335 11.5717 5.72902 11.1513C5.81371 10.74 5.93902 10.3356 6.10279 9.9502C6.26342 9.57074 6.46219 9.205 6.69283 8.86421C6.92159 8.52532 7.18474 8.20824 7.47412 7.91833C7.7632 7.62997 8.08196 7.36817 8.42042 7.13912C8.7623 6.90786 9.12859 6.70972 9.50797 6.54868C9.89425 6.38544 10.2989 6.26032 10.7105 6.1767C11.1318 6.09057 11.5656 6.04688 11.9993 6.04688C12.4328 6.04688 12.8666 6.09057 13.2885 6.1767C13.6994 6.26035 14.1041 6.38547 14.4907 6.54868C14.8701 6.7097 15.2361 6.90786 15.5779 7.13912C15.9164 7.36817 16.2352 7.62997 16.5249 7.91833C16.814 8.20824 17.0771 8.52532 17.3055 8.86421C17.5374 9.205 17.7359 9.57076 17.8958 9.9502C18.0596 10.3356 18.1846 10.74 18.269 11.1513C18.3555 11.5717 18.3996 12.0049 18.3996 12.438ZM9.6673 7.50141C8.14314 8.22011 7.00558 9.62253 6.65087 11.3127C6.79496 11.3139 9.07258 11.3426 11.6968 10.6464C10.7508 8.96811 9.74012 7.59849 9.6673 7.50141ZM12.1496 11.4868C9.33541 12.3281 6.63494 12.2676 6.53807 12.2639C6.53649 12.3225 6.53369 12.3793 6.53369 12.438C6.53369 13.8401 7.0634 15.1183 7.93407 16.0848C7.93219 16.082 9.42792 13.4322 12.3774 12.4798C12.4487 12.4561 12.5212 12.4349 12.5931 12.4143C12.4559 12.1041 12.3062 11.7933 12.1496 11.4868ZM15.6089 8.34181C14.6466 7.49454 13.3831 6.9806 11.9993 6.9806C11.5552 6.9806 11.1242 7.03428 10.7114 7.13351C10.7933 7.24337 11.8199 8.60334 12.7546 10.3172C14.817 9.54514 15.5954 8.36178 15.6089 8.34181ZM12.9656 13.3186C12.9535 13.3227 12.9413 13.3261 12.9294 13.3305C9.70458 14.4531 8.65148 16.7154 8.64008 16.7401C9.56796 17.4607 10.7318 17.8954 11.9993 17.8954C12.7562 17.8954 13.4772 17.7415 14.1332 17.4629C14.0522 16.986 13.7347 15.3146 12.9656 13.3186ZM15.0535 16.9642C16.2808 16.1372 17.1524 14.8241 17.3955 13.303C17.283 13.2668 15.7539 12.7834 13.9897 13.0659C14.7066 15.0331 14.9979 16.6353 15.0535 16.9642ZM13.1753 11.1304C13.3022 11.3907 13.425 11.6556 13.5385 11.9218C13.5788 12.0173 13.6182 12.111 13.6566 12.2046C15.5342 11.9686 17.384 12.3656 17.4631 12.3818C17.4506 11.088 16.9871 9.90056 16.2202 8.97094C16.2099 8.98557 15.3333 10.2504 13.1753 11.1304Z" fill="white"/>
</svg>
