<svg width="24" height="25" viewBox="0 0 24 25" fill="none" xmlns="http://www.w3.org/2000/svg">
<path opacity="0.1" fill-rule="evenodd" clip-rule="evenodd" d="M0 12.4468C0 5.81936 5.37258 0.446777 12 0.446777C18.6274 0.446777 24 5.81936 24 12.4468C24 19.0742 18.6274 24.4468 12 24.4468C5.37258 24.4468 0 19.0742 0 12.4468Z" fill="white"/>
<path fill-rule="evenodd" clip-rule="evenodd" d="M12.0002 6.04688C10.2621 6.04688 10.0439 6.05448 9.36125 6.08554C8.67991 6.11674 8.21484 6.22461 7.8079 6.38288C7.38696 6.54635 7.02989 6.76502 6.67415 7.12089C6.31815 7.47662 6.09948 7.83369 5.93548 8.2545C5.77681 8.66157 5.66881 9.12677 5.63814 9.80785C5.60761 10.4905 5.59961 10.7088 5.59961 12.4469C5.59961 14.1851 5.60734 14.4026 5.63828 15.0852C5.66961 15.7666 5.77748 16.2316 5.93561 16.6386C6.09921 17.0595 6.31788 17.4166 6.67375 17.7723C7.02936 18.1283 7.38643 18.3475 7.8071 18.511C8.2143 18.6693 8.67951 18.7771 9.36072 18.8083C10.0434 18.8394 10.2614 18.847 11.9994 18.847C13.7377 18.847 13.9552 18.8394 14.6378 18.8083C15.3192 18.7771 15.7848 18.6693 16.192 18.511C16.6128 18.3475 16.9693 18.1283 17.3249 17.7723C17.6809 17.4166 17.8996 17.0595 18.0636 16.6387C18.2209 16.2316 18.3289 15.7664 18.3609 15.0854C18.3916 14.4027 18.3996 14.1851 18.3996 12.4469C18.3996 10.7088 18.3916 10.4907 18.3609 9.80798C18.3289 9.12664 18.2209 8.66157 18.0636 8.25463C17.8996 7.83369 17.6809 7.47662 17.3249 7.12089C16.9689 6.76488 16.6129 6.54621 16.1916 6.38288C15.7836 6.22461 15.3182 6.11674 14.6369 6.08554C13.9542 6.05448 13.7369 6.04688 11.9982 6.04688H12.0002ZM11.426 7.2002C11.5964 7.19994 11.7866 7.2002 12.0002 7.2002C13.709 7.2002 13.9115 7.20634 14.5863 7.237C15.2103 7.26554 15.549 7.3698 15.7746 7.4574C16.0733 7.57341 16.2862 7.71207 16.5101 7.93608C16.7341 8.16008 16.8728 8.37341 16.989 8.67208C17.0766 8.89742 17.181 9.23609 17.2094 9.8601C17.2401 10.5348 17.2468 10.7374 17.2468 12.4455C17.2468 14.1535 17.2401 14.3561 17.2094 15.0308C17.1809 15.6548 17.0766 15.9935 16.989 16.2188C16.873 16.5175 16.7341 16.7302 16.5101 16.954C16.2861 17.178 16.0734 17.3167 15.7746 17.4327C15.5493 17.5207 15.2103 17.6247 14.5863 17.6532C13.9117 17.6839 13.709 17.6906 12.0002 17.6906C10.2912 17.6906 10.0887 17.6839 9.41402 17.6532C8.79002 17.6244 8.45134 17.5202 8.22561 17.4326C7.92694 17.3166 7.7136 17.1779 7.4896 16.9539C7.2656 16.7299 7.12693 16.5171 7.01066 16.2183C6.92306 15.993 6.81866 15.6543 6.79026 15.0303C6.75959 14.3556 6.75346 14.1529 6.75346 12.4439C6.75346 10.7348 6.75959 10.5332 6.79026 9.8585C6.81879 9.23449 6.92306 8.89582 7.01066 8.67022C7.12666 8.37155 7.2656 8.15821 7.4896 7.93421C7.7136 7.71021 7.92694 7.57154 8.22561 7.45527C8.45121 7.36727 8.79002 7.26327 9.41402 7.2346C10.0044 7.20794 10.2332 7.19994 11.426 7.1986V7.2002ZM15.4165 8.26288C14.9925 8.26288 14.6485 8.60649 14.6485 9.03062C14.6485 9.45463 14.9925 9.79863 15.4165 9.79863C15.8405 9.79863 16.1845 9.45463 16.1845 9.03062C16.1845 8.60662 15.8405 8.26288 15.4165 8.26288ZM12.0002 9.16022C10.1851 9.16022 8.71352 10.6318 8.71352 12.4469C8.71352 14.262 10.1851 15.733 12.0002 15.733C13.8153 15.733 15.2864 14.262 15.2864 12.4469C15.2864 10.6318 13.8153 9.16022 12.0002 9.16022ZM12.0002 10.3136C13.1783 10.3136 14.1336 11.2686 14.1336 12.4469C14.1336 13.6251 13.1783 14.5803 12.0002 14.5803C10.8219 14.5803 9.86684 13.6251 9.86684 12.4469C9.86684 11.2686 10.8219 10.3136 12.0002 10.3136Z" fill="white"/>
</svg>
