<svg width="32" height="32" viewBox="0 0 32 32" fill="none" xmlns="http://www.w3.org/2000/svg">
<path fill-rule="evenodd" clip-rule="evenodd" d="M0 16C0 7.16344 7.16344 0 16 0C24.8366 0 32 7.16344 32 16C32 24.8366 24.8366 32 16 32C7.16344 32 0 24.8366 0 16Z" fill="#FF0000"/>
<path fill-rule="evenodd" clip-rule="evenodd" d="M22.6679 10.2329C23.4022 10.4344 23.9805 11.0282 24.1768 11.7822C24.5335 13.1487 24.5335 16 24.5335 16C24.5335 16 24.5335 18.8512 24.1768 20.2179C23.9805 20.9719 23.4022 21.5656 22.6679 21.7672C21.3371 22.1334 16.0001 22.1334 16.0001 22.1334C16.0001 22.1334 10.6632 22.1334 9.3323 21.7672C8.59795 21.5656 8.01962 20.9719 7.82335 20.2179C7.4668 18.8512 7.4668 16 7.4668 16C7.4668 16 7.4668 13.1487 7.82335 11.7822C8.01962 11.0282 8.59795 10.4344 9.3323 10.2329C10.6632 9.8667 16.0001 9.8667 16.0001 9.8667C16.0001 9.8667 21.3371 9.8667 22.6679 10.2329ZM14.4001 13.6V18.9333L18.6668 16.2667L14.4001 13.6Z" fill="white"/>
</svg>
