<svg width="24" height="25" viewBox="0 0 24 25" fill="none" xmlns="http://www.w3.org/2000/svg">
<path opacity="0.1" fill-rule="evenodd" clip-rule="evenodd" d="M0 12.4468C0 5.81936 5.37258 0.446777 12 0.446777C18.6274 0.446777 24 5.81936 24 12.4468C24 19.0742 18.6274 24.4468 12 24.4468C5.37258 24.4468 0 19.0742 0 12.4468Z" fill="white"/>
<path fill-rule="evenodd" clip-rule="evenodd" d="M17.0004 8.12134C17.5512 8.27248 17.9849 8.71779 18.1321 9.28329C18.3996 10.3082 18.3996 12.4467 18.3996 12.4467C18.3996 12.4467 18.3996 14.5851 18.1321 15.6101C17.9849 16.1756 17.5512 16.6209 17.0004 16.7721C16.0023 17.0467 11.9996 17.0467 11.9996 17.0467C11.9996 17.0467 7.99692 17.0467 6.99874 16.7721C6.44797 16.6209 6.01423 16.1756 5.86703 15.6101C5.59961 14.5851 5.59961 12.4467 5.59961 12.4467C5.59961 12.4467 5.59961 10.3082 5.86703 9.28329C6.01423 8.71779 6.44797 8.27248 6.99874 8.12134C7.99692 7.84668 11.9996 7.84668 11.9996 7.84668C11.9996 7.84668 16.0023 7.84668 17.0004 8.12134ZM10.7996 10.6466V14.6466L13.9996 12.6467L10.7996 10.6466Z" fill="white"/>
</svg>
