<svg width="62" height="62" viewBox="0 0 62 62" fill="none" xmlns="http://www.w3.org/2000/svg">
<rect width="62" height="62" rx="16" fill="#0064E0" fill-opacity="0.1"/>
<path d="M36.0112 32.4604L38.9242 33.0385C39.0266 34.6755 40.4366 35.9194 42.0735 35.8171C43.7105 35.7147 44.9544 34.3048 44.8521 32.6678C44.7497 31.0309 43.3397 29.7869 41.7028 29.8893C40.6416 29.9556 39.6968 30.5843 39.2258 31.5375L36.2113 30.9393C36.1786 29.7975 35.7367 28.7054 34.9663 27.862L39.0299 22.1216C40.9116 22.9377 43.0986 22.0738 43.9146 20.1922C44.7307 18.3106 43.8669 16.1236 41.9853 15.3075C40.1036 14.4915 37.9166 15.3553 37.1006 17.2369C36.515 18.587 36.7819 20.1555 37.781 21.2359L33.7656 26.9083C31.8445 25.8302 29.4351 26.2073 27.9354 27.8209L22.6736 23.7346C23.3683 22.2451 22.724 20.4745 21.2346 19.7797C19.745 19.0849 17.9744 19.7293 17.2797 21.2187C16.5849 22.7082 17.2292 24.4788 18.7187 25.1736C19.685 25.6243 20.8186 25.5236 21.6903 24.9096L27.081 29.0958C26.215 30.9871 26.6736 33.2215 28.2145 34.6188L24.9855 39.1854C23.0792 38.1226 20.6723 38.8064 19.6096 40.7127C18.5468 42.6189 19.2306 45.0258 21.1368 46.0886C23.0431 47.1513 25.45 46.4676 26.5127 44.5613C27.2919 43.1636 27.1514 41.4341 26.1567 40.1805L29.498 35.4547C30.6623 35.9712 31.9848 36.0003 33.1706 35.5355L37.165 41.4361C35.9435 42.8274 36.0811 44.9454 37.4723 46.1668C38.8635 47.3883 40.9815 47.2507 42.203 45.8595C43.4245 44.4683 43.2868 42.3503 41.8957 41.1289C40.9391 40.2889 39.5894 40.0633 38.4116 40.5465L34.4908 34.7546C35.2108 34.1547 35.7394 33.3572 36.0112 32.4604ZM41.8867 31.4145C42.6809 31.4145 43.3247 32.0582 43.3247 32.8524C43.3247 33.6465 42.6809 34.2903 41.8867 34.2903C41.0926 34.2903 40.4488 33.6465 40.4488 32.8524C40.4495 32.0585 41.0929 31.4151 41.8867 31.4145ZM40.4976 16.549C41.6974 16.5491 42.6701 17.5218 42.6701 18.7217C42.67 19.9216 41.6973 20.8943 40.4974 20.8942C39.2976 20.8941 38.3249 19.9215 38.3249 18.7216C38.3264 17.5222 39.2983 16.5503 40.4976 16.549ZM19.982 23.9211C19.1882 23.9202 18.545 23.2769 18.544 22.4832C18.544 21.689 19.1878 21.0452 19.982 21.0452C20.7761 21.0452 21.4199 21.689 21.4199 22.4832C21.4199 23.2773 20.7762 23.9211 19.982 23.9211ZM23.0711 45.0381C21.74 45.0381 20.6611 43.9591 20.6611 42.628C20.6612 41.297 21.7402 40.218 23.0712 40.2181C24.4022 40.2181 25.4812 41.2971 25.4812 42.6281C25.4797 43.9585 24.4015 45.0367 23.0711 45.0381ZM39.6834 41.8269C40.6919 41.8281 41.509 42.6452 41.5102 43.6537C41.5102 44.6627 40.6923 45.4805 39.6834 45.4805C38.6744 45.4805 37.8566 44.6627 37.8566 43.6537C37.8566 42.6448 38.6745 41.8269 39.6834 41.8269ZM31.4311 34.3335C29.6356 34.3315 28.1805 32.8764 28.1785 31.0809C28.1785 29.2846 29.6348 27.8284 31.4311 27.8284C33.2274 27.8284 34.6836 29.2846 34.6836 31.0809C34.6836 32.8773 33.2274 34.3335 31.4311 34.3335Z" fill="#095DC5"/>
</svg>
