<svg viewBox="0 0 90 89" fill="none" xmlns="http://www.w3.org/2000/svg">
<g filter="url(#filter0_d_165_1269)">
<rect x="24" y="13" width="41.413" height="40" rx="11.4286" fill="white"/>
<rect x="23.4286" y="12.4286" width="42.5559" height="41.1429" rx="12" stroke="#F3F7F5" stroke-width="1.14286"/>
</g>
<path fill-rule="evenodd" clip-rule="evenodd" d="M48.0021 26.4339C47.1447 26.5634 46.2806 26.9868 45.685 27.5692C45.0461 28.1939 44.726 28.886 44.6556 29.795C44.628 30.1512 44.6675 30.1281 44.2114 30.0551C42.9326 29.8503 41.7105 29.389 40.606 28.6943C39.9701 28.2944 39.4893 27.8959 38.7659 27.1693C38.5951 26.9978 38.5111 26.9587 38.3126 26.9587C38.1571 26.9587 38.0238 27.0139 37.9164 27.1226C37.8215 27.2186 37.6278 27.5791 37.5146 27.8704C37.1915 28.7023 37.259 29.7748 37.6838 30.5545L37.7643 30.7022L37.6802 30.7218C37.5506 30.7518 37.3629 30.9214 37.3171 31.0498C37.2583 31.2146 37.2986 31.7075 37.4015 32.0804C37.5699 32.691 37.8948 33.2337 38.3633 33.687C38.6002 33.9162 38.6159 33.9397 38.5705 33.9971C38.4653 34.1302 38.4427 34.303 38.5062 34.4901C38.6702 34.9729 39.0408 35.5045 39.4962 35.9102C39.8287 36.2063 40.0687 36.3677 40.4648 36.5616L40.7054 36.6794L40.482 36.7728C39.6681 37.1131 38.6513 37.2774 37.5948 37.2395C37.0016 37.2182 36.9916 37.219 36.8729 37.2926C36.6425 37.4358 36.5592 37.7633 36.6993 37.9757C36.8728 38.2387 38.2955 38.8957 39.3052 39.1792C41.9769 39.9291 44.9559 39.6662 47.3032 38.4732C49.3193 37.4486 50.8459 35.8826 51.7536 33.9081C52.196 32.9456 52.4417 31.9424 52.5176 30.788L52.5574 30.1842L52.8101 29.938C53.182 29.5756 53.4549 29.2154 53.6831 28.786C53.9129 28.3533 54.024 27.98 54.0243 27.6387C54.0246 27.3637 53.9465 27.2337 53.715 27.1238C53.5202 27.0313 53.3817 27.0472 53.0886 27.1954C52.6032 27.4409 52.0531 27.5423 51.6014 27.4695C51.3979 27.4368 51.3429 27.4122 51.1917 27.2864C50.7159 26.8907 50.0813 26.5975 49.4093 26.4629C49.0586 26.3927 48.3687 26.3785 48.0021 26.4339ZM49.1552 27.4493C49.6642 27.5393 50.1672 27.781 50.5522 28.1206C50.7736 28.3158 50.9554 28.3995 51.2748 28.4532C51.54 28.4978 52.2996 28.5 52.5078 28.4568C52.6833 28.4203 52.6824 28.4272 52.4729 28.7151C52.2592 29.0089 52.0186 29.2569 51.7694 29.4402C51.4472 29.6773 51.443 29.6892 51.4286 30.4024C51.4063 31.5057 51.2316 32.3447 50.8199 33.3256C50.0604 35.1352 48.6021 36.6687 46.7711 37.583C44.7614 38.5866 42.2193 38.8559 40.0008 38.3003C39.7834 38.2458 39.5707 38.194 39.5282 38.1852C39.3984 38.1581 39.4406 38.1275 39.6657 38.0855C40.0474 38.0142 40.797 37.766 41.2576 37.5585C41.7806 37.3229 42.5052 36.8864 42.6196 36.7381C42.7324 36.592 42.732 36.2967 42.6189 36.1501C42.5039 36.001 42.392 35.9594 42.0068 35.9229C41.4543 35.8705 41.0081 35.7169 40.5679 35.4276C40.3627 35.2927 39.9664 34.9326 39.9664 34.8809C39.9664 34.866 40.1066 34.8362 40.278 34.8146C40.6342 34.7697 40.8025 34.7133 40.938 34.5933C41.1864 34.3733 41.1091 33.9593 40.7914 33.8076C40.7441 33.785 40.6067 33.7432 40.4862 33.7148C39.7802 33.5485 39.1137 33.0721 38.7455 32.4707C38.6372 32.2939 38.5098 32.0111 38.531 31.9946C38.536 31.9908 38.656 32.0067 38.7978 32.0301C39.193 32.0952 39.4687 32.0877 39.6226 32.0077C39.8633 31.8827 39.9699 31.5655 39.8459 31.3438C39.8174 31.2929 39.6836 31.1684 39.5485 31.0673C39.1984 30.8052 39.1674 30.7777 38.9851 30.5661C38.7801 30.3282 38.5788 29.9425 38.4888 29.6151C38.4103 29.3297 38.3954 28.8144 38.4578 28.5454L38.4959 28.3812L38.7585 28.6194C40.1501 29.8816 42.2377 30.8197 44.2494 31.0871C45.3048 31.2273 45.5338 31.2118 45.7189 30.9874C45.8464 30.8329 45.8587 30.7291 45.792 30.3715C45.6635 29.6818 45.8325 29.0336 46.285 28.4814C46.6744 28.0061 47.2637 27.649 47.9064 27.4986C48.3532 27.3941 48.7537 27.3783 49.1552 27.4493Z" fill="#4E4E4E"/>
<defs>
<filter id="filter0_d_165_1269" x="0.000279427" y="0.428606" width="89.4125" height="87.9999" filterUnits="userSpaceOnUse" color-interpolation-filters="sRGB">
<feFlood flood-opacity="0" result="BackgroundImageFix"/>
<feColorMatrix in="SourceAlpha" type="matrix" values="0 0 0 0 0 0 0 0 0 0 0 0 0 0 0 0 0 0 127 0" result="hardAlpha"/>
<feMorphology radius="11.4286" operator="erode" in="SourceAlpha" result="effect1_dropShadow_165_1269"/>
<feOffset dy="11.4286"/>
<feGaussianBlur stdDeviation="17.1429"/>
<feComposite in2="hardAlpha" operator="out"/>
<feColorMatrix type="matrix" values="0 0 0 0 0 0 0 0 0 0 0 0 0 0 0 0 0 0 0.2 0"/>
<feBlend mode="normal" in2="BackgroundImageFix" result="effect1_dropShadow_165_1269"/>
<feBlend mode="normal" in="SourceGraphic" in2="effect1_dropShadow_165_1269" result="shape"/>
</filter>
</defs>
</svg>
