<svg width="32" height="17" viewBox="0 0 32 17" fill="none" xmlns="http://www.w3.org/2000/svg">
<path d="M4.34633 11.5501C3.89275 11.2115 3.33037 11.0106 2.7215 11.0106C1.22125 11.0106 0 12.2318 0 13.7321C0 15.2323 1.22125 16.4536 2.7215 16.4536C4.22175 16.4536 5.443 15.2323 5.443 13.7321C5.443 13.2197 5.3 12.7398 5.05259 12.3301L9.949 7.89428C10.4026 8.23293 10.965 8.43384 11.5738 8.43384C12.3722 8.43384 13.0916 8.08817 13.59 7.53808L17.8661 10.1078C17.7617 10.3964 17.7047 10.7079 17.7047 11.0325C17.7047 12.5328 18.9259 13.754 20.4262 13.754C21.9264 13.754 23.1477 12.5328 23.1477 11.0325C23.1477 10.5026 22.995 10.0078 22.7318 9.5893L27.6932 4.93151C28.1397 5.25262 28.6872 5.443 29.2785 5.443C30.7787 5.443 32 4.22175 32 2.7215C32 1.22125 30.7787 0 29.2785 0C27.7783 0 26.557 1.22125 26.557 2.7215C26.557 3.25141 26.7097 3.74623 26.9729 4.16472L22.0115 8.8225C21.565 8.5014 21.0175 8.31102 20.4262 8.31102C19.6278 8.31102 18.9084 8.65669 18.41 9.20678L14.1339 6.63706C14.2383 6.34841 14.2953 6.03696 14.2953 5.71234C14.2953 4.2121 13.0741 2.99084 11.5738 2.99084C10.0736 2.99084 8.85233 4.2121 8.85233 5.71234C8.85233 6.22471 8.99534 6.70461 9.24275 7.11433L4.34633 11.5501ZM29.2776 1.05193C30.1979 1.05193 30.9463 1.8003 30.9463 2.72062C30.9463 3.64095 30.1979 4.38932 29.2776 4.38932C28.3573 4.38932 27.6089 3.64095 27.6089 2.72062C27.6089 1.8003 28.3582 1.05193 29.2776 1.05193ZM20.4262 9.36294C21.3465 9.36294 22.0949 10.1113 22.0949 11.0316C22.0949 11.952 21.3465 12.7003 20.4262 12.7003C19.5058 12.7003 18.7575 11.952 18.7575 11.0316C18.7575 10.1113 19.5058 9.36294 20.4262 9.36294ZM2.72238 15.4008C1.80205 15.4008 1.05368 14.6524 1.05368 13.7321C1.05368 12.8118 1.80205 12.0634 2.72238 12.0634C3.6427 12.0634 4.39107 12.8118 4.39107 13.7321C4.39107 14.6524 3.6427 15.4008 2.72238 15.4008ZM11.5738 4.04277C12.4942 4.04277 13.2425 4.79114 13.2425 5.71147C13.2425 6.63179 12.4942 7.38016 11.5738 7.38016C10.6535 7.38016 9.90514 6.63179 9.90514 5.71147C9.90514 4.79114 10.6544 4.04277 11.5738 4.04277Z" fill="white"/>
</svg>
