<svg width="5" height="6" viewBox="0 0 5 6" fill="none" xmlns="http://www.w3.org/2000/svg">
<path d="M1.15584 3.73555H2.52396L1.15584 5.1068C1.11109 5.15007 1.0754 5.20181 1.05086 5.25901C1.02632 5.31621 1.01342 5.37772 1.01291 5.43996C1.0124 5.5022 1.02429 5.56392 1.04789 5.62152C1.07148 5.67912 1.10631 5.73144 1.15034 5.77543C1.19438 5.81942 1.24673 5.8542 1.30435 5.87774C1.36197 5.90128 1.4237 5.91312 1.48594 5.91255C1.54818 5.91198 1.60968 5.89902 1.66686 5.87442C1.72404 5.84983 1.77574 5.81409 1.81896 5.7693L3.98959 3.59868C4.05527 3.53316 4.10004 3.44962 4.11822 3.35864C4.13639 3.26766 4.12716 3.17333 4.09169 3.0876C4.05622 3.00187 3.99611 2.92859 3.91896 2.87705C3.84182 2.8255 3.75112 2.79801 3.65834 2.79805H2.28771L3.50459 1.58055C3.5845 1.49133 3.62723 1.37489 3.62399 1.25515C3.62075 1.13541 3.5718 1.02146 3.48718 0.936679C3.40256 0.8519 3.2887 0.802732 3.16896 0.799268C3.04923 0.795805 2.93272 0.838309 2.84334 0.918055L0.824588 2.93743C0.759115 3.00298 0.714537 3.08647 0.696485 3.17734C0.678432 3.26822 0.687714 3.3624 0.723159 3.44801C0.758603 3.53361 0.81862 3.60679 0.89563 3.6583C0.97264 3.70981 1.06319 3.73735 1.15584 3.73743V3.73555Z" fill="white"/>
</svg>
