<svg width="33" height="32" viewBox="0 0 33 32" fill="none" xmlns="http://www.w3.org/2000/svg">
<path d="M28.5 11.1245C28.3447 10.9379 28.1543 10.7838 27.9395 10.6708C27.7247 10.5579 27.4897 10.4883 27.2481 10.4662C27.0064 10.4441 26.7627 10.4697 26.531 10.5417C26.2992 10.6138 26.0839 10.7307 25.8974 10.886C25.7108 11.0412 25.5567 11.2316 25.4438 11.4464C25.3308 11.6612 25.2613 11.8962 25.2391 12.1378C25.217 12.3795 25.2427 12.6232 25.3147 12.8549C25.3867 13.0867 25.5037 13.302 25.6589 13.4885L26.2128 14.1532H23.1539C22.8205 12.877 22.1531 11.7126 21.2205 10.7798C20.2878 9.84696 19.1234 9.17947 17.8472 8.84594V5.787L18.5101 6.34093C18.8929 6.64175 19.3764 6.78446 19.8613 6.73969C20.3461 6.69493 20.7953 6.46611 21.1166 6.10028C21.4266 5.72242 21.5752 5.23762 21.5301 4.75096C21.4851 4.26431 21.25 3.81502 20.876 3.50048L17.1831 0.423068C16.8504 0.149536 16.433 0 16.0023 0C15.5716 0 15.1542 0.149536 14.8215 0.423068L11.1286 3.50048C10.7518 3.81414 10.5151 4.26461 10.4705 4.7528C10.4259 5.24099 10.577 5.72691 10.8907 6.10366C11.2044 6.48041 11.6548 6.71713 12.143 6.76174C12.6312 6.80635 13.1171 6.6552 13.4939 6.34154L14.158 5.78761V8.84656C12.881 9.17936 11.7158 9.84647 10.7824 10.7792C9.84888 11.7119 9.18084 12.8766 8.84699 14.1532H5.78805L6.34198 13.4898C6.61819 13.1575 6.76912 12.7389 6.76851 12.3068C6.7691 11.9267 6.6524 11.5557 6.43432 11.2445C6.21625 10.9332 5.90744 10.6968 5.55003 10.5675C5.19262 10.4383 4.80403 10.4225 4.4373 10.5223C4.07057 10.622 3.74356 10.8326 3.50091 11.1251L0.423503 14.818C0.149702 15.1507 0 15.5682 0 15.9991C0 16.43 0.149702 16.8475 0.423503 17.1802L3.50091 20.8731C3.81457 21.2498 4.26505 21.4865 4.75324 21.5312C5.24143 21.5758 5.72735 21.4246 6.1041 21.111C6.48084 20.7973 6.71756 20.3468 6.76218 19.8586C6.80679 19.3704 6.65564 18.8845 6.34198 18.5078L5.78805 17.8461H8.84699C9.18031 19.1225 9.84772 20.2871 10.7805 21.2199C11.7134 22.1527 12.8779 22.8201 14.1543 23.1534V26.2124L13.4908 25.6585C13.1081 25.3577 12.6246 25.215 12.1399 25.2598C11.6552 25.3045 11.206 25.5333 10.8849 25.8991C10.575 26.2771 10.4265 26.762 10.4716 27.2487C10.5166 27.7354 10.7515 28.1848 11.1255 28.4995L14.8184 31.5769C15.1511 31.8505 15.5685 32 15.9992 32C16.4299 32 16.8473 31.8505 17.18 31.5769L20.8729 28.4995C21.2496 28.1859 21.4864 27.7354 21.531 27.2472C21.5756 26.759 21.4244 26.2731 21.1108 25.8963C20.7971 25.5196 20.3467 25.2829 19.8585 25.2383C19.3703 25.1936 18.8844 25.3448 18.5076 25.6585L17.8435 26.2124V23.1534C19.1206 22.8207 20.2859 22.1535 21.2194 21.2207C22.1529 20.2878 22.8209 19.123 23.1545 17.8461H26.2134L25.6595 18.5096C25.3833 18.8419 25.2324 19.2605 25.233 19.6926C25.2323 20.0727 25.3489 20.4438 25.5669 20.7551C25.7849 21.0665 26.0937 21.303 26.4512 21.4324C26.8086 21.5617 27.1972 21.5776 27.564 21.4778C27.9308 21.378 28.2579 21.1675 28.5006 20.8749L31.578 17.182C31.8518 16.8496 32.0015 16.4322 32.0015 16.0015C32.0015 15.5708 31.8518 15.1535 31.578 14.821L28.5 11.1245ZM30.6308 16.3954L27.5533 20.0883C27.4493 20.2122 27.301 20.2905 27.14 20.3066C26.9791 20.3227 26.8182 20.2753 26.6917 20.1745C26.621 20.1155 26.564 20.0419 26.5247 19.9586C26.4854 19.8754 26.4646 19.7846 26.4639 19.6926C26.4633 19.5489 26.513 19.4096 26.6043 19.2987L28.0014 17.6252C28.0765 17.5353 28.1243 17.4259 28.1394 17.3099C28.1544 17.1938 28.1361 17.0758 28.0865 16.9698C28.0368 16.8637 27.958 16.7741 27.8592 16.7113C27.7604 16.6485 27.6458 16.6151 27.5287 16.6152H22.6603C22.5164 16.6152 22.3771 16.6657 22.2666 16.7578C22.1561 16.8499 22.0813 16.9778 22.0552 17.1193C21.8258 18.3433 21.2319 19.4696 20.3512 20.3502C19.4706 21.2308 18.3444 21.8248 17.1203 22.0542C16.9788 22.0802 16.8509 22.155 16.7588 22.2655C16.6668 22.3761 16.6163 22.5153 16.6162 22.6592V27.5277C16.6162 27.6447 16.6495 27.7594 16.7123 27.8582C16.7751 27.957 16.8648 28.0358 16.9708 28.0854C17.0768 28.135 17.1948 28.1534 17.3109 28.1383C17.427 28.1233 17.5364 28.0754 17.6262 28.0004L19.2966 26.6057C19.3588 26.5537 19.4307 26.5146 19.508 26.4904C19.5853 26.4662 19.6667 26.4575 19.7474 26.4648C19.8281 26.472 19.9065 26.4951 19.9783 26.5327C20.0501 26.5703 20.1138 26.6217 20.1657 26.6838C20.2176 26.746 20.2568 26.8179 20.281 26.8952C20.3052 26.9725 20.3139 27.0539 20.3066 27.1346C20.2994 27.2153 20.2763 27.2937 20.2387 27.3655C20.2011 27.4373 20.1497 27.501 20.0875 27.5529L16.3947 30.6303C16.2831 30.7216 16.1434 30.7714 15.9992 30.7714C15.8551 30.7714 15.7153 30.7216 15.6038 30.6303L11.9109 27.5529C11.7873 27.4487 11.7091 27.3004 11.6931 27.1395C11.677 26.9787 11.7242 26.8179 11.8247 26.6912C11.8837 26.6203 11.9576 26.5631 12.041 26.5237C12.1245 26.4842 12.2155 26.4635 12.3078 26.4629C12.4515 26.4623 12.5909 26.5119 12.7018 26.6032L14.3753 28.0004C14.4651 28.0754 14.5745 28.1233 14.6906 28.1383C14.8067 28.1534 14.9246 28.135 15.0307 28.0854C15.1367 28.0358 15.2264 27.957 15.2892 27.8582C15.352 27.7594 15.3853 27.6447 15.3853 27.5277V22.6592C15.3852 22.5153 15.3347 22.3761 15.2426 22.2655C15.1506 22.155 15.0227 22.0802 14.8812 22.0542C13.6571 21.8248 12.5309 21.2308 11.6503 20.3502C10.7696 19.4696 10.1757 18.3433 9.94625 17.1193C9.92021 16.9778 9.84543 16.8499 9.7349 16.7578C9.62438 16.6657 9.48509 16.6152 9.34123 16.6152H4.47276C4.3557 16.6151 4.24105 16.6485 4.14226 16.7113C4.04347 16.7741 3.96465 16.8637 3.91503 16.9698C3.8654 17.0758 3.84705 17.1938 3.86211 17.3099C3.87718 17.4259 3.92503 17.5353 4.00007 17.6252L5.39475 19.2956C5.44668 19.3578 5.48586 19.4296 5.51003 19.5069C5.53421 19.5843 5.54292 19.6656 5.53566 19.7463C5.5284 19.827 5.50532 19.9055 5.46773 19.9773C5.43014 20.0491 5.37878 20.1127 5.31659 20.1647C5.25439 20.2166 5.18258 20.2558 5.10524 20.2799C5.02791 20.3041 4.94657 20.3128 4.86587 20.3056C4.78517 20.2983 4.70669 20.2752 4.63491 20.2376C4.56313 20.2 4.49946 20.1487 4.44753 20.0865L1.37011 16.3936C1.27881 16.2822 1.22891 16.1425 1.22891 15.9985C1.22891 15.8544 1.27881 15.7148 1.37011 15.6033L4.44753 11.9104C4.55193 11.7871 4.70016 11.7092 4.86094 11.6931C5.02172 11.677 5.18245 11.7241 5.3092 11.8243C5.38022 11.8831 5.43748 11.9568 5.47693 12.0402C5.51638 12.1236 5.53707 12.2146 5.53754 12.3068C5.53855 12.4503 5.48886 12.5896 5.39722 12.7001L4.00007 14.3742C3.92503 14.4641 3.87718 14.5734 3.86211 14.6895C3.84705 14.8056 3.8654 14.9236 3.91503 15.0296C3.96465 15.1356 4.04347 15.2253 4.14226 15.2881C4.24105 15.3509 4.3557 15.3843 4.47276 15.3842H9.34123C9.48509 15.3841 9.62438 15.3337 9.7349 15.2416C9.84543 15.1495 9.92021 15.0216 9.94625 14.8801C10.1754 13.656 10.7694 12.5298 11.65 11.6492C12.5307 10.7686 13.657 10.1749 14.8812 9.94581C15.0228 9.91975 15.1507 9.84488 15.2428 9.73423C15.3349 9.62358 15.3853 9.48414 15.3853 9.34017V4.47171C15.3853 4.35465 15.352 4.24 15.2892 4.14121C15.2264 4.04242 15.1367 3.9636 15.0307 3.91397C14.9246 3.86435 14.8067 3.846 14.6906 3.86106C14.5745 3.87613 14.4651 3.92398 14.3753 3.99902L12.7048 5.3937C12.6426 5.44563 12.5707 5.4848 12.4934 5.50896C12.416 5.53312 12.3346 5.5418 12.2539 5.53452C12.1732 5.52723 12.0947 5.50411 12.0229 5.46649C11.9511 5.42886 11.8874 5.37746 11.8355 5.31523C11.7835 5.25299 11.7444 5.18114 11.7202 5.10377C11.696 5.02639 11.6874 4.94502 11.6947 4.86429C11.7019 4.78356 11.7251 4.70506 11.7627 4.63327C11.8003 4.56147 11.8517 4.49779 11.9139 4.44586L15.6068 1.36845C15.7184 1.27709 15.8581 1.22718 16.0023 1.22718C16.1465 1.22718 16.2862 1.27709 16.3977 1.36845L20.0906 4.44586C20.2145 4.5499 20.2928 4.69827 20.3088 4.85928C20.3248 5.02029 20.2772 5.18116 20.1762 5.30754C20.0691 5.43039 19.9192 5.50776 19.757 5.52389C19.5948 5.54001 19.4326 5.49367 19.3034 5.39432L17.6262 3.99779C17.5363 3.92268 17.4268 3.87481 17.3106 3.85979C17.1944 3.84477 17.0763 3.86323 16.9703 3.913C16.8642 3.96277 16.7745 4.04179 16.7118 4.14076C16.6491 4.23973 16.6159 4.35454 16.6162 4.47171V9.34017C16.6161 9.48414 16.6665 9.62358 16.7586 9.73423C16.8507 9.84488 16.9787 9.91975 17.1203 9.94581C18.3445 10.1749 19.4708 10.7686 20.3515 11.6492C21.2321 12.5298 21.826 13.656 22.0552 14.8801C22.0813 15.0216 22.1561 15.1495 22.2666 15.2416C22.3771 15.3337 22.5164 15.3841 22.6603 15.3842H27.5287C27.6458 15.3843 27.7604 15.3509 27.8592 15.2881C27.958 15.2253 28.0368 15.1356 28.0865 15.0296C28.1361 14.9236 28.1544 14.8056 28.1394 14.6895C28.1243 14.5734 28.0765 14.4641 28.0014 14.3742L26.6061 12.7032C26.5542 12.6409 26.5151 12.5691 26.491 12.4917C26.4669 12.4144 26.4582 12.333 26.4655 12.2523C26.4728 12.1716 26.496 12.0932 26.5336 12.0214C26.5713 11.9496 26.6227 11.886 26.6849 11.8341C26.7471 11.7822 26.819 11.7431 26.8963 11.719C26.9737 11.6948 27.055 11.6862 27.1357 11.6935C27.2164 11.7008 27.2949 11.724 27.3667 11.7616C27.4384 11.7992 27.5021 11.8507 27.554 11.9129L30.6314 15.6058C30.7221 15.7174 30.7716 15.8569 30.7715 16.0007C30.7714 16.1446 30.7217 16.284 30.6308 16.3954Z" fill="white"/>
</svg>
