<svg width="32" height="25" viewBox="0 0 32 25" fill="none" xmlns="http://www.w3.org/2000/svg">
<path d="M12.2327 23.2727H8C5.81818 23.2727 3.89818 22.5455 2.34182 20.9891C0.785454 19.4618 0 17.5855 0 15.3891C0 13.4982 0.567273 11.8109 1.70182 10.3273C2.80817 8.87678 4.39749 7.87055 6.18182 7.49091C6.79273 5.26545 8 3.46182 9.81818 2.08C11.6364 0.727272 13.7018 0 16 0C18.8364 0 21.2509 0.989091 23.2145 2.96727C25.1927 4.93091 26.1818 7.34545 26.1818 10.1818C27.8545 10.3709 29.2509 11.0982 30.3418 12.3636C31.2727 13.4255 31.7964 14.6327 31.9418 16H29.0327C28.8873 15.2727 28.5673 14.6764 28.0291 14.1527C27.3309 13.44 26.4727 13.0909 25.4545 13.0909H23.2727V10.1818C23.2727 8.17455 22.5455 6.45818 21.1491 5.03273C19.7382 3.63636 18.0218 2.90909 16 2.90909C13.9927 2.90909 12.2764 3.63636 10.8509 5.03273C9.45455 6.45818 8.72727 8.17455 8.72727 10.1818H8C6.58909 10.1818 5.39636 10.6764 4.40727 11.68C3.40364 12.6691 2.90909 13.8618 2.90909 15.2727C2.90909 16.6836 3.40364 17.8909 4.40727 18.9091C5.39636 19.8836 6.58909 20.3636 8 20.3636H11.6364C11.6364 21.4109 11.8545 22.3855 12.2327 23.2727ZM32 18.9091V21.8182H29.0909V24.7273H26.1818V21.8182H22.9818C22.4 23.5636 20.8 24.7273 18.9091 24.7273C16.4364 24.7273 14.5455 22.8364 14.5455 20.3636C14.5455 17.8909 16.4364 16 18.9091 16C20.8 16 22.4 17.1636 22.9818 18.9091H32ZM20.3636 20.3636C20.3636 19.6364 19.7818 18.9091 18.9091 18.9091C18.0364 18.9091 17.4545 19.6364 17.4545 20.3636C17.4545 21.0909 18.0364 21.8182 18.9091 21.8182C19.7818 21.8182 20.3636 21.0909 20.3636 20.3636Z" fill="white"/>
</svg>
