<svg width="32" height="24" viewBox="0 0 32 24" fill="none" xmlns="http://www.w3.org/2000/svg">
<path d="M28.7221 0H3.27801C1.47051 0 0 1.47057 0 3.27801V20.0152C0 21.8227 1.47051 23.2932 3.27801 23.2932H28.722C30.5295 23.2932 32 21.8227 32 20.0152V3.27801C32.0001 1.47057 30.5295 0 28.7221 0ZM1.8989 20.0152V17.0846H5.19419V21.3943H3.27801C2.51756 21.3943 1.8989 20.7756 1.8989 20.0152ZM30.1012 20.0152C30.1012 20.7756 29.4825 21.3943 28.7221 21.3943H7.09309V16.1351C7.09309 15.6108 6.66798 15.1857 6.14364 15.1857H1.8989V3.27801C1.8989 2.51756 2.51756 1.8989 3.27801 1.8989H28.722C29.4824 1.8989 30.1011 2.51756 30.1011 3.27801V20.0152H30.1012Z" fill="white"/>
<path d="M18.5375 9.21753C18.1651 9.5868 18.1627 10.1879 18.532 10.5602C19.1061 11.139 19.0973 12.0819 18.5123 12.6621C18.14 13.0314 18.1376 13.6325 18.5068 14.0048C18.6925 14.192 18.9366 14.2857 19.1809 14.2857C19.4225 14.2857 19.6644 14.194 19.8495 14.0103C21.1778 12.6927 21.1915 10.5452 19.88 9.22298C19.5109 8.85079 18.9097 8.84826 18.5375 9.21753Z" fill="white"/>
<path d="M22.5433 7.66732C22.1739 7.29495 21.5729 7.29261 21.2006 7.66188C20.8282 8.03115 20.8258 8.63228 21.1951 9.00459C22.6133 10.4344 22.5944 12.7609 21.1529 14.1909C20.7806 14.5601 20.7782 15.1613 21.1475 15.5336C21.3331 15.7207 21.5772 15.8144 21.8215 15.8144C22.0632 15.8144 22.305 15.7227 22.4901 15.539C24.6751 13.3717 24.6989 9.84049 22.5433 7.66732Z" fill="white"/>
<path d="M23.4573 5.31491C23.085 5.68418 23.0826 6.28531 23.4519 6.65762C26.1474 9.37513 26.1132 13.7953 23.3755 16.5108C23.0032 16.88 23.0008 17.4812 23.3701 17.8535C23.5558 18.0406 23.7999 18.1343 24.0442 18.1343C24.2858 18.1343 24.5277 18.0426 24.7128 17.8589C28.1938 14.406 28.2329 8.78129 24.8 5.32035C24.4307 4.9481 23.8296 4.94563 23.4573 5.31491Z" fill="white"/>
<path d="M13.7338 5.01361H4.94164C4.41729 5.01361 3.99219 5.43871 3.99219 5.96306C3.99219 6.48741 4.41729 6.91251 4.94164 6.91251H13.7337C14.2581 6.91251 14.6832 6.48741 14.6832 5.96306C14.6832 5.43871 14.2581 5.01361 13.7338 5.01361Z" fill="white"/>
<path d="M9.33781 8.71088H5.30297C4.77862 8.71088 4.35352 9.13598 4.35352 9.66033C4.35352 10.1847 4.77862 10.6098 5.30297 10.6098H9.33781C9.86216 10.6098 10.2873 10.1847 10.2873 9.66033C10.2873 9.13598 9.86222 8.71088 9.33781 8.71088Z" fill="white"/>
</svg>
