<svg width="176" height="143" viewBox="0 0 176 143" fill="none" xmlns="http://www.w3.org/2000/svg">
<path fill-rule="evenodd" clip-rule="evenodd" d="M0 120.666C26.2452 108.258 39.3677 93.679 39.3677 76.9284C28.1812 75.6876 18.9309 71.2932 11.6167 63.7451C4.30243 56.197 0.645376 47.4599 0.645376 37.5336C0.645376 26.9869 4.19488 18.0948 11.294 10.8568C18.3931 3.6189 27.3207 0 38.0769 0C50.1239 0 60.5573 4.70458 69.3774 14.1139C78.1976 23.5232 82.6076 34.9486 82.6076 48.3905C82.6076 88.716 59.1593 120.252 12.2621 143L0 120.666ZM92.6206 120.666C119.081 108.258 132.311 93.679 132.311 76.9284C120.909 75.6876 111.552 71.2932 104.237 63.7451C96.923 56.197 93.266 47.4599 93.266 37.5336C93.266 26.9869 96.8692 18.0948 104.076 10.8568C111.283 3.6189 120.264 0 131.02 0C143.067 0 153.447 4.70458 162.159 14.1139C170.872 23.5232 175.228 34.9486 175.228 48.3905C175.228 88.716 151.887 120.252 105.205 143L92.6206 120.666Z" fill="white"/>
</svg>
